<svg width="45" height="35" viewBox="0 0 45 35" fill="none" xmlns="http://www.w3.org/2000/svg">
<path opacity="0.4" d="M32.7039 5.58692C35.1122 5.4817 36.6525 4.36149 37.5886 3.57857C37.6795 4.90126 37.5229 6.6081 37.1187 7.03146C38.0559 6.90007 38.8547 6.52058 39.137 6.34725C39.216 8.24361 37.5304 10.9843 35.7835 12.5566C36.2639 19.2386 31.2654 28.5825 21.4015 29.9669C12.2258 31.2547 5.53872 26.7894 2 21.6761C6.3063 24.3231 12.353 23.6895 12.7917 23.2801C6.85478 18.63 7.20075 6.25076 11.395 3C13.6979 7.84663 18.7105 9.76806 20.824 10.1312C22.5771 2.84672 29.9946 3.51879 32.7039 5.58692V5.58692Z" stroke="white" stroke-width="0.254726"/>
<path d="M36.1708 8.618C35.1711 9.06205 34.0968 9.36222 32.9692 9.49715C34.1201 8.8062 35.004 7.71202 35.4202 6.40827C34.3432 7.0481 33.1502 7.51274 31.8804 7.76316C30.8635 6.67802 29.4148 6 27.8115 6C24.7328 6 22.2369 8.4998 22.2369 11.583C22.2369 12.0207 22.2862 12.4467 22.3813 12.8554C17.7484 12.6226 13.6409 10.3998 10.8915 7.02195C10.4117 7.84657 10.1368 8.80561 10.1368 9.82882C10.1368 11.7658 11.121 13.4747 12.6167 14.4759C11.7029 14.447 10.8434 14.1958 10.0918 13.7776C10.0914 13.8009 10.0913 13.8243 10.0913 13.8478C10.0913 16.5529 12.0128 18.8095 14.5629 19.3224C14.0951 19.4499 13.6027 19.5182 13.0943 19.5182C12.7351 19.5182 12.3859 19.4832 12.0455 19.418C12.7549 21.6361 14.8135 23.2504 17.2528 23.2955C15.345 24.7929 12.9414 25.6854 10.3298 25.6854C9.87981 25.6854 9.43607 25.659 9 25.6074C11.467 27.1915 14.3971 28.1158 17.5451 28.1158C27.7985 28.1158 33.4054 19.6084 33.4054 12.2304C33.4054 11.9884 33.4 11.7476 33.3893 11.5082C34.4784 10.721 35.4235 9.73764 36.1708 8.618V8.618Z" fill="#4EE39D"/>
</svg>
