<svg width="13" height="13" viewBox="0 0 13 13" fill="none" xmlns="http://www.w3.org/2000/svg">
<g clip-path="url(#clip0_117_1684)">
<path d="M6.09567 4.54466V5.28191C6.09567 5.6797 5.7732 6.00217 5.37541 6.00217H0.813766C0.415977 6.00217 0.0935059 6.32464 0.0935059 6.72243V11.2841C0.0935059 11.6819 0.415977 12.0043 0.813766 12.0043H5.37541C5.7732 12.0043 6.09567 11.6819 6.09567 11.2841V6.72243C6.09567 6.32464 6.41814 6.00217 6.81593 6.00217H11.3776C11.7753 6.00217 12.0978 5.6797 12.0978 5.28191V0.720261C12.0978 0.322472 11.7753 0 11.3776 0H6.74976C6.38956 0 6.09757 0.291999 6.09757 0.652198V4.54466H6.09567Z" fill="#4EE39D"/>
</g>
<defs>
<clipPath id="clip0_117_1684">
<rect width="13" height="13" fill="white"/>
</clipPath>
</defs>
</svg>
