<svg width="45" height="35" viewBox="0 0 45 35" fill="none" xmlns="http://www.w3.org/2000/svg">
<path fill-rule="evenodd" clip-rule="evenodd" d="M7 25.2673C7.04573 25.8823 7.51515 26.193 7.99657 26.5115L8.00454 26.5169L8.01046 26.5208L8.01445 26.5235C8.06491 26.5569 8.1155 26.5903 8.16569 26.6244C10.2121 27.9464 12.4016 28.9871 14.7342 29.7606C15.1062 29.8872 15.3066 29.8309 15.5212 29.5075C15.9505 28.8605 16.3655 28.2136 16.7519 27.5385C16.938 27.2291 16.8664 27.0884 16.5373 26.9619C16.2795 26.8583 14.228 26.0498 14.3764 25.7946C14.4909 25.5976 14.7055 25.3586 15.0204 25.4289C15.1349 25.457 15.2494 25.5273 15.3638 25.5696C20.4726 27.6651 25.5814 27.6792 30.6759 25.5414C30.8756 25.4514 31.0503 25.3501 31.2627 25.4852C31.7063 25.7946 31.7206 25.893 31.2341 26.1321C30.633 26.4275 30.0177 26.7088 29.4023 26.976C29.1018 27.1025 29.0446 27.2432 29.202 27.5244C29.617 28.2417 30.0463 28.9449 30.5185 29.62C30.6759 29.845 30.8334 29.8872 31.1053 29.8029C33.8099 28.959 36.2999 27.7073 38.6039 26.0899C38.7899 25.9633 38.8758 25.7946 38.8901 25.5696C39.4482 19.2688 37.8741 13.5025 34.3108 8.25667C34.182 8.05978 34.0246 7.91914 33.7956 7.82067C31.8923 7.00498 29.9318 6.40018 27.8854 6.02049C27.542 5.95017 27.3845 6.06266 27.2701 6.32986C27.1502 6.68319 26.9206 7.42094 26.5546 7.56754C26.2111 7.70817 25.7246 7.5253 25.2952 7.48314C23.4492 7.31435 21.5888 7.32842 19.7571 7.58162C19.4423 7.62378 19.2849 7.55346 19.1418 7.2581C18.8151 6.5812 18.6506 6.24017 18.3806 6.10963C18.1065 5.97702 17.7237 6.06142 16.9523 6.23145C15.3495 6.58306 13.804 7.10338 12.2871 7.73627C11.9579 7.87691 11.729 8.07386 11.5429 8.36915C7.9818 13.7689 7.28538 19.0969 7 25.2673V25.2673ZM30.1608 21.5191C31.7556 19.9843 31.4182 16.9228 29.1877 16.1325C28.1001 15.7388 27.1413 16.0201 26.3542 16.8077C25.238 17.9187 25.1235 19.7611 26.0394 21.055C27.0554 22.4614 28.9301 22.6864 30.1608 21.5191ZM19.5424 21.5051C21.1758 19.9332 20.7548 16.8979 18.5121 16.1185C17.4674 15.7669 16.5373 16.0341 15.7645 16.7795C14.5624 17.9327 14.4766 19.9439 15.5499 21.2378C16.5945 22.5035 18.369 22.6302 19.5424 21.5051Z" fill="#4EE39D"/>
<path opacity="0.4" d="M4 26.8587C4.06002 27.6841 4.67614 28.1011 5.308 28.5286L5.31846 28.5358L5.32623 28.5411L5.33146 28.5447L5.33394 28.5464C5.39935 28.5906 5.46492 28.6349 5.52997 28.6801C8.21584 30.4543 13.4202 31.8463 16.4817 32.8845C16.9701 33.0543 17.233 32.9788 17.5148 32.5447L18.7151 31.0176C19.1418 30.4747 19.8183 30.1942 20.5063 30.2536C22.4618 30.4223 23.8347 30.3979 25.595 30.2554C26.3503 30.1943 27.0808 30.5505 27.483 31.1929L28.5321 32.8684C28.7387 33.1705 28.9453 33.227 29.3022 33.1139C32.8521 31.9813 38.4562 30.1334 41.4801 27.9627C41.7243 27.7929 41.837 27.5664 41.8558 27.2644C42.5883 18.8081 40.5222 12.0692 35.8454 5.02868C35.6764 4.76445 35.4698 4.57569 35.1692 4.44353C32.6712 3.34879 30.098 2.53709 27.4121 2.0275C26.9613 1.93313 26.7547 2.08409 26.6045 2.44271C26.4472 2.91691 26.1458 3.90705 25.6654 4.1038C25.2146 4.29255 24.576 4.04711 24.0125 3.99053C21.5896 3.76399 23.1478 3.78288 20.7437 4.1227C20.3305 4.17929 20.1239 4.08491 19.9361 3.68851C19.5074 2.78003 19.2914 2.32234 18.9371 2.14713C18.5774 1.96919 18.0751 2.08239 17.0629 2.31051L17.0623 2.31063C14.9587 2.78252 12.9302 3.48086 10.9393 4.33025C10.5073 4.51901 10.2068 4.78334 9.96261 5.17965C5.28861 12.4267 4.37456 18.5775 4 26.8587V26.8587Z" stroke="white" stroke-width="0.3"/>
</svg>
