<svg fill="none" height="42" viewBox="0 0 42 42" width="42" xmlns="http://www.w3.org/2000/svg" xmlns:xlink="http://www.w3.org/1999/xlink"><clipPath id="a"><rect height="41.6965" rx="20.8483" width="41.6965"/></clipPath><g clip-path="url(#a)"><path d="m0 0h41.6965v41.6965h-41.6965z" fill="#f7931a"/><path clip-rule="evenodd" d="m29.917 18.0349c.4156-2.7839-1.7001-4.2804-4.5932-5.2787l.9386-3.77117-2.2916-.57201-.9136 3.67188c-.6024-.1506-1.2211-.2924-1.836-.433l.9203-3.69606-2.29-.57201-.9391 3.76987c-.4985-.1137-.9882-.226-1.4632-.3445l.0027-.0118-3.1601-.7905-.6095 2.4518s1.7001.3904 1.6642.4144c.928.2321 1.0958.8474 1.0679 1.3352l-1.0691 4.2962c.0639.0162.1468.0398.2382.0766-.0764-.019-.1578-.0398-.2422-.0601l-1.4985 6.0184c-.1134.2824-.4012.7063-1.05.5453.023.0334-1.6655-.4163-1.6655-.4163l-1.13768 2.6277 2.98198.7447c.5548.1394 1.0984.2852 1.6338.4223l-.9483 3.8144 2.2889.572.9391-3.7739c.6252.1701 1.2321.3269 1.8261.4748l-.9359 3.7561 2.2916.572.9482-3.8072c3.9075.7408 6.8456.4421 8.0823-3.0985.9965-2.8507-.0496-4.4949-2.1053-5.5672 1.4972-.3459 2.625-1.3324 2.9257-3.3704l-.0007-.0005zm-5.2354 7.3547c-.7082 2.8506-5.4992 1.3097-7.0525.9232l1.2583-5.0534c1.5532.3885 6.5343 1.1572 5.7943 4.1302zm.7087-7.3962c-.646 2.593-4.6336 1.2756-5.9271.9526l1.1408-4.5831c1.2936.323 5.4593.9259 4.7865 3.6305z" fill="#fff" fill-rule="evenodd"/></g></svg>