<svg fill="none" height="35" viewBox="0 0 45 35" width="45" xmlns="http://www.w3.org/2000/svg"><path clip-rule="evenodd" d="m7 25.2673c.04573.615.51515.9257.99657 1.2442l.00797.0054.00592.0039.00399.0027c.05046.0334.10105.0668.15124.1009 2.04641 1.322 4.23591 2.3627 6.56851 3.1362.372.1266.5724.0703.787-.2531.4293-.647.8443-1.2939 1.2307-1.969.1861-.3094.1145-.4501-.2146-.5766-.2578-.1036-2.3093-.9121-2.1609-1.1673.1145-.197.3291-.436.644-.3657.1145.0281.229.0984.3434.1407 5.1088 2.0955 10.2176 2.1096 15.3121-.0282.1997-.09.3744-.1913.5868-.0562.4436.3094.4579.4078-.0286.6469-.6011.2954-1.2164.5767-1.8318.8439-.3005.1265-.3577.2672-.2003.5484.415.7173.8443 1.4205 1.3165 2.0956.1574.225.3149.2672.5868.1829 2.7046-.8439 5.1946-2.0956 7.4986-3.713.186-.1266.2719-.2953.2862-.5203.5581-6.3008-1.016-12.0671-4.5793-17.31293-.1288-.19689-.2862-.33753-.5152-.436-1.9033-.81569-3.8638-1.42049-5.9102-1.80018-.3434-.07032-.5009.04217-.6153.30937-.1199.35333-.3495 1.09108-.7155 1.23768-.3435.14063-.83-.04224-1.2594-.0844-1.846-.16879-3.7064-.15472-5.5381.09848-.3148.04216-.4722-.02816-.6153-.32352-.3267-.6769-.4912-1.01793-.7612-1.14847-.2741-.13261-.6569-.04821-1.4283.12182-1.6028.35161-3.1483.87193-4.6652 1.50482-.3292.14064-.5581.33759-.7442.63288-3.5611 5.39975-4.25752 10.72775-4.5429 16.89815zm23.1608-3.7482c1.5948-1.5348 1.2574-4.5963-.9731-5.3866-1.0876-.3937-2.0464-.1124-2.8335.6752-1.1162 1.111-1.2307 2.9534-.3148 4.2473 1.016 1.4064 2.8907 1.6314 4.1214.4641zm-10.6184-.014c1.6334-1.5719 1.2124-4.6072-1.0303-5.3866-1.0447-.3516-1.9748-.0844-2.7476.661-1.2021 1.1532-1.2879 3.1644-.2146 4.4583 1.0446 1.2657 2.8191 1.3924 3.9925.2673z" fill="#a2a2aa" fill-rule="evenodd" opacity=".68"/></svg>