<svg fill="none" height="50" viewBox="0 0 230 50" width="230" xmlns="http://www.w3.org/2000/svg"><g fill="#9c9ca4"><path d="m126.272 42.9406c-3.886-4.0293-7.506-7.7881-11.218-11.6398-.949.7977-1.866 1.456-2.634 2.2619-.316.3332-.432.9752-.44 1.4778-.038 3.095-.014 6.1928-.019 9.2878 0 .489-.041.9807-.068 1.6062-2.301 0-4.499.0738-6.684-.0601-.454-.0273-1.119-.7703-1.23-1.2839-.189-.8714.525-1.2975 1.336-1.3248 1.254-.0437 2.509-.011 3.861-.011 0-11.7244 0-23.315 0-35.15421-1.166 0-2.317.01092-3.469-.00273-.919-.01093-1.804-.17756-1.774-1.36585.033-1.18556.946-1.28937 1.85-1.29483 1.976-.0082 3.955-.00273 6.164-.00273v24.54155c.119.0465.235.0957.354.1421 3.564-3.0185 7.13-6.0371 10.915-9.2441-.646-.0628-1.019-.0874-1.387-.1366-.832-.112-1.533-.4589-1.527-1.415.005-.9807.722-1.2893 1.571-1.3085 1.127-.0246 2.252-.0164 3.379-.0164 2.796 0 5.589-.0082 8.385.0055.887.0055 1.836.0792 1.884 1.262.052 1.2566-.924 1.4178-1.865 1.4642-.874.0437-1.752.0082-3.02.0082 3.055 2.9694 5.794 5.6465 8.568 8.288.17.1639.743.1776.906.0219 2.779-2.6389 5.521-5.3187 8.176-8.3153-.919 0-1.841.0328-2.758-.0082-.919-.0437-1.784-.3278-1.752-1.456.03-1.079.903-1.2539 1.757-1.2621 2.391-.0218 4.778-.0218 7.168-.0082.898.0055 1.831.1394 1.877 1.2949.04 1.038-.755 1.3139-1.631 1.4505-.376.0574-.806.2076-1.068.4644-3.379 3.278-6.732 6.5807-10.09 9.8805-.06.0574-.071.1639.33-.1857 2.579 2.8601 5.139 5.7366 7.746 8.5721.949 1.0325 1.968 2.0078 3.034 2.9174.475.4043 1.116.7212 1.727.8277.849.1503 1.36.5136 1.374 1.3768.013.9069-.595 1.3112-1.401 1.3358-1.576.0492-3.155.0301-4.731.0301-1.487.0027-2.975.0082-4.462-.0164-.876-.0137-1.533-.4125-1.535-1.3604-.006-.9643.673-1.3249 1.543-1.3358 1.393-.0164 2.785-.0055 4.643-.0055-3.618-3.5293-6.949-6.7801-10.388-10.1373-3.377 3.2807-6.624 6.4359-10.18 9.8915.871.1229 1.287.2212 1.706.2349.855.0273 1.712.0164 2.569.0082.916-.0109 1.684.2841 1.698 1.3167.013 1.1145-.798 1.4041-1.763 1.4013-1.622-.0054-3.245.0028-4.869.0028-1.398 0-2.796-.0055-4.191-.0082-.903-.0028-1.671-.2759-1.717-1.3167-.046-1.0626.703-1.3495 1.617-1.4041.454-.0246.9-.1475 1.733-.2923zm1.96-2.3739c3.001-2.9037 6.24-6.0343 9.569-9.2522-3.569-3.4584-7.06-6.8429-10.618-10.2931-3.431 2.9038-6.754 5.7147-10.356 8.7633 3.867 3.6578 7.576 7.1625 11.405 10.782z"/><path d="m85.8611 8.66867c-2.9147.92059-5.5725 1.76473-8.233 2.60063-.384.1229-.8436.3769-1.1572.2649-.5246-.1912-1.1897-.5408-1.3573-.9916-.1352-.3633.2595-1.11178.6354-1.43412.4136-.35512 1.0706-.42615 1.6276-.60644 3.3446-1.08175 6.6892-2.15804 10.0365-3.22887.3352-.10654.6894-.15844 1.1896-.27317v38.1509c.6057.0355 1.0761.0874 1.5493.0874 2.5686.0082 5.1372.0082 7.7057.0055.9518 0 1.7791.2431 1.7494 1.3959-.027 1.0544-.8193 1.3167-1.7115 1.3167-7.0758.0054-14.1489.0082-21.2247.0027-.8976 0-1.6682-.2813-1.6709-1.3467-.0027-1.1583.822-1.3713 1.771-1.3686 2.5226.0055 5.0479 0 7.5706 0h1.5195c0-11.5769 0-22.9736 0-34.57513z"/></g></svg>