<svg fill="none" height="50" viewBox="0 0 230 50" width="230" xmlns="http://www.w3.org/2000/svg"><g clip-rule="evenodd" fill="#9c9ca4" fill-rule="evenodd"><path d="m35.5249 27.5764c2.6315-5.895 5.2753-11.785 7.8766-17.69257.2873-.65235.6157-.892 1.3478-.88362 3.3059.03964 6.6129.02952 9.9191.00672.6199-.00423 1.0203.08532 1.3001.73194 4.5786 10.58173 9.1865 21.15133 13.7829 31.72563.0512.1181.0365.2635.0673.5165-1.9566 0-3.8761-.0411-5.7926.0181-.8959.0276-.9513-.6294-1.1706-1.1344-3.6178-8.3349-7.2476-16.665-10.7895-25.0305-.4635-1.0944-1.0103-1.482-2.1675-1.3813-1.1731.1022-2.2716-.2276-2.888 1.406-1.4949 3.9619-3.2832 7.8182-4.9533 11.7171-2.1773.0001-4.3548.0003-6.5323.0004z"/><path d="m37.1829 33.3049c-1.5607.0003-3.0307.0007-4.2871.0007-1.2812 2.8538-2.5633 5.7089-3.8958 8.6764 2.146 0 4.0474-.0303 5.9467.0172.63.0157.9367-.195 1.1631-.727 1.1318-2.6613 2.2881-5.3133 3.4363-7.9681-.7925.0003-1.5851.0006-2.3632.0008z"/><path d="m103.505 18.5346c1.27-2.9077 2.545-5.8129 3.799-8.72679.139-.32177.297-.43998.65-.43584 1.595.01955 3.19.01456 4.784.00331.299-.00209.492.04208.627.36102 2.209 5.2194 4.431 10.4327 6.648 15.6485.025.0582.018.1299.032.2547-.943 0-1.869-.0203-2.793.0089-.432.0137-.459-.3104-.565-.5595-1.745-4.1111-3.495-8.2199-5.204-12.3461-.223-.5398-.487-.731-1.045-.6813-.566.0504-1.096-.1123-1.393.6935-.721 1.9541-1.583 3.8562-2.389 5.7793-1.05.0001-2.1.0002-3.151.0003z"/><path d="m152.898 18.5346c1.269-2.9077 2.544-5.8129 3.799-8.72679.138-.32177.296-.43998.65-.43584 1.594.01955 3.189.01456 4.784.00331.299-.00209.492.04208.627.36102 2.208 5.2194 4.43 10.4327 6.647 15.6485.025.0582.018.1299.033.2547-.944 0-1.87-.0203-2.794.0089-.432.0137-.459-.3104-.565-.5595-1.745-4.1111-3.495-8.2199-5.204-12.3461-.223-.5398-.487-.731-1.045-.6813-.566.0504-1.096-.1123-1.393.6935-.721 1.9541-1.583 3.8562-2.389 5.7793-1.05.0001-2.1.0002-3.15.0003z"/><path d="m89.5277 18.1184c.8644 0 1.4628-.0785 1.7953-.2355.3319-.157.4984-.4448.4984-.8633v-4.5261c0-.4187-.1665-.7063-.4984-.8633-.3325-.157-.9309-.2355-1.7953-.2355h-4.8527v6.7237zm-4.8527 7.4561h-3.3239v-16.35119h8.1437c1.4843 0 2.6423.17449 3.4732.52332.8309.34907 1.4293.92017 1.7953 1.71347.3654.794.5481 1.8881.5481 3.2834 0 1.9537-.4105 3.3487-1.2298 4.1859-.8199.8373-2.1827 1.2558-4.0884 1.2558h-5.3182z"/><path d="m130.268 17.7259h5.011c.862 0 1.46-.0785 1.792-.2355.331-.157.497-.4446.497-.8633v-4.1336c0-.4187-.166-.7063-.497-.8633-.332-.157-.93-.2355-1.792-.2355h-5.011zm8.163 7.8486-3.451-5.7818h-4.712v5.7818h-3.318v-16.35119h8.296c1.481 0 2.637.17449 3.467.52332.83.34907 1.427.92017 1.792 1.71347.365.794.548 1.888.548 3.2834 0 1.3433-.216 2.3937-.647 3.1524-.432.7588-1.134 1.2865-2.108 1.5828l3.75 6.0958z"/><path d="m180.956 25.5745h-3.324v-16.35119h11.304l-.365 2.17149h-7.615v5.3108h6.65v2.0668h-6.65z"/><path d="m197.738 25.5745h3.262v-16.35119h-3.262z"/><path d="m102.197 21.2645c-.618 1.4147-1.236 2.83-1.878 4.3011 1.034 0 1.951-.015 2.866.0085.304.0078.452-.0966.561-.3603.545-1.3194 1.103-2.634 1.656-3.9501-.382.0002-.764.0003-1.139.0004-.752.0002-1.461.0004-2.066.0004z"/><path d="m153.747 21.2641c-.757.0002-1.47.0004-2.079.0004-.618 1.4147-1.238 2.83-1.881 4.3012 1.033 0 1.949-.015 2.863.0084.304.0078.451-.0963.56-.3592.547-1.3197 1.106-2.6347 1.66-3.9512-.376.0002-.753.0003-1.123.0004z"/><path d="m90.4556 39.5446v-2.4472c0-.7798.1776-1.3469.5323-1.701.3549-.3543.9193-.5314 1.6934-.5314h1.3009c.6595 0 1.1505.1378 1.4731.4132.3224.2755.5015.7175.5375 1.3256.0143.1861-.0789.279-.2795.279-.172 0-.2653-.0929-.2796-.279-.0287-.4364-.1505-.7422-.3656-.9177-.215-.1753-.577-.263-1.0859-.263h-1.3009c-.4158 0-.7437.0538-.9838.161-.2402.1074-.4139.2809-.5214.5206-.1076.2398-.1613.5707-.1613.9927v2.4472c0 .4224.0537.7532.1613.9928.1075.2398.2812.4132.5214.5206.2401.1073.5715.1611.9946.1611h1.2901c.5089 0 .8709-.0859 1.0859-.2576.2151-.1719.3369-.4794.3656-.923.0143-.1862.1076-.2792.2796-.2792.2006 0 .2938.0966.2795.2898-.036.6083-.2151 1.0482-.5375 1.3202-.3226.272-.8136.4078-1.4731.4078h-1.2901c-.7742 0-1.3405-.1787-1.6989-.5367-.3584-.3577-.5376-.923-.5376-1.6958z"/><path d="m109.313 39.3514h3.028l-1.514-3.6063zm4.511 2.1681c0 .0931-.061.1682-.181.2253-.043.0215-.089.0323-.139.0323-.1 0-.171-.0573-.213-.1717l-.715-1.6959h-3.487l-.715 1.6959c-.05.1144-.128.1717-.235.1717-.035 0-.081-.0108-.138-.0323-.114-.0429-.171-.1215-.171-.2361 0-.0571.007-.1001.021-.1287l2.645-6.3004c.057-.1431.164-.2146.32-.2146h.022c.142 0 .245.0715.309.2146l2.645 6.3004c.021.05.032.0966.032.1395z"/><path d="m129.884 36.7218c0-.4507-.102-.7798-.305-.9874-.203-.2075-.532-.3113-.988-.3113h-2.224v2.9194h2.224c.456 0 .785-.1019.988-.3059.203-.2039.305-.5348.305-.9928zm.085-1.3846c.314.315.471.7766.471 1.3846v.322c0 .6082-.155 1.0698-.465 1.3845-.31.3151-.772.4722-1.384.4722h-2.224v2.5975c0 .1862-.092.2791-.278.2791-.185 0-.277-.0929-.277-.2791v-6.3539c0-.1861.092-.2791.277-.2791h2.502c.605 0 1.065.1574 1.378.4722z"/><path d="m142.575 41.7019c-.048-.05-.072-.1181-.072-.2039v-6.3539c0-.0859.024-.1538.072-.204.047-.0499.112-.0751.194-.0751s.146.0252.194.0751c.048.0502.071.1181.071.204v6.3539c0 .0858-.023.1539-.071.2039-.048.0502-.112.0752-.194.0752s-.147-.025-.194-.0752z"/><path d="m157.82 41.6967c-.054-.0536-.08-.1195-.08-.1982v-6.0764h-2.287c-.079 0-.145-.0266-.199-.0802-.054-.0537-.08-.1196-.08-.1983 0-.0857.026-.1535.08-.2037.054-.0497.12-.0749.199-.0749h5.132c.086 0 .154.0252.204.0749.05.0502.075.118.075.2037 0 .0787-.025.1446-.075.1983-.05.0536-.118.0802-.204.0802h-2.287v6.0764c0 .0787-.025.1446-.075.1982-.05.0537-.118.0804-.204.0804-.079 0-.145-.0267-.199-.0804z"/><path d="m172.058 39.3514h3.029l-1.514-3.6063zm4.511 2.1681c0 .0931-.06.1682-.181.2253-.043.0215-.089.0323-.139.0323-.099 0-.17-.0573-.213-.1717l-.715-1.6959h-3.487l-.715 1.6959c-.049.1144-.128.1717-.234.1717-.036 0-.082-.0108-.139-.0323-.114-.0429-.17-.1215-.17-.2361 0-.0571.007-.1001.021-.1287l2.645-6.3004c.057-.1431.163-.2146.32-.2146h.021c.142 0 .245.0715.309.2146l2.645 6.3004c.022.05.032.0966.032.1395z"/><path d="m188.633 41.498v-6.3539c0-.1861.092-.2791.278-.2791.185 0 .278.093.278.2791v6.075h3.263c.185 0 .278.0929.278.2789 0 .1862-.093.2791-.278.2791h-3.541c-.186 0-.278-.0929-.278-.2791z"/></g></svg>