<svg fill="none" height="50" viewBox="0 0 230 50" width="230" xmlns="http://www.w3.org/2000/svg"><g fill="#9c9ca4"><path d="m14.7974 33.4705c-.2127 0-.404-.0745-.5741-.2235-.1489-.1703-.2233-.3619-.2233-.5748v-20.7562c0-.2342.0744-.4258.2233-.5748.1701-.149.3614-.2236.5741-.2236h8.6753c2.7855 0 4.9543.6387 6.5065 1.916 1.5735 1.256 2.3602 3.0443 2.3602 5.3647 0 1.4902-.3508 2.7569-1.0525 3.8s-1.6692 1.8414-2.9024 2.3949l4.3696 7.8555c.0637.1277.0956.2448.0956.3512 0 .1703-.0744.33-.2232.479-.1276.1278-.2764.1916-.4466.1916h-4.2419c-.6167 0-1.0526-.2874-1.3077-.8622l-3.636-7.0251h-3.2533v7.089c0 .2342-.085.4258-.2551.5748-.1489.149-.3402.2235-.5741.2235zm8.6115-12.4218c.9781 0 1.7223-.2342 2.2326-.7025.5104-.4896.7655-1.1602.7655-2.0118 0-.8515-.2551-1.5221-.7655-2.0117-.489-.511-1.2332-.7664-2.2326-.7664h-3.6679v5.4924z"/><path d="m36.4668 14.4706c-.2339 0-.4253-.0745-.5741-.2236-.1489-.149-.2233-.3406-.2233-.5747v-2.874c0-.2342.0744-.4258.2233-.5748.1488-.149.3402-.2235.5741-.2235h3.8273c.2339 0 .4253.0745.5741.2235.1489.149.2233.3406.2233.5748v2.874c0 .2341-.0744.4257-.2233.5747-.1488.1491-.3402.2236-.5741.2236zm.0319 18.9999c-.2339 0-.4253-.0745-.5741-.2235-.1489-.149-.2233-.3406-.2233-.5748v-15.0084c0-.2341.0744-.4257.2233-.5747.1488-.1491.3402-.2236.5741-.2236h3.7636c.2338 0 .4252.0745.5741.2236.1488.149.2232.3406.2232.5747v15.0084c0 .2129-.0744.4045-.2232.5748-.1489.149-.3403.2235-.5741.2235z"/><path d="m54.9699 33.7899c-2.1263 0-3.7742-.7132-4.9437-2.1395v1.0218c0 .2129-.0744.4045-.2232.5748-.1489.149-.3402.2235-.5741.2235h-3.6041c-.2126 0-.404-.0745-.5741-.2235-.1489-.1703-.2233-.3619-.2233-.5748v-21.0756c0-.2341.0744-.4257.2233-.5748.1701-.149.3615-.2235.5741-.2235h3.8911c.2339 0 .4253.0745.5741.2235.1489.1491.2233.3407.2233.5748v6.8336c1.1907-1.256 2.7429-1.884 4.6566-1.884 2.0625 0 3.6892.6706 4.8799 2.0118 1.1907 1.3411 1.8286 3.1613 1.9137 5.4604.0212.2768.0319.66.0319 1.1496 0 .4684-.0107.8409-.0319 1.1177-.1063 2.3843-.7442 4.2364-1.9137 5.5563-1.1695 1.2986-2.7961 1.9479-4.8799 1.9479zm-1.7223-4.279c.9994 0 1.7117-.2981 2.1369-.8941.4466-.5961.7017-1.4157.7655-2.4589.0425-.4257.0638-.7557.0638-.9899 0-.2341-.0213-.5641-.0638-.9899-.0638-1.0431-.3189-1.8627-.7655-2.4588-.4252-.5961-1.1375-.8941-2.1369-.8941-.9356 0-1.6479.2874-2.1369.8622-.4891.5748-.7549 1.2986-.7974 2.1714l-.0319 1.1815.0319 1.2134c.0638.958.3189 1.7457.7655 2.3631.4678.596 1.1907.8941 2.1688.8941z"/><path d="m75.091 33.7899c-2.1264 0-3.7742-.7132-4.9437-2.1395v1.0218c0 .2129-.0744.4045-.2233.5748-.1488.149-.3402.2235-.5741.2235h-3.6041c-.2126 0-.404-.0745-.5741-.2235-.1488-.1703-.2232-.3619-.2232-.5748v-21.0756c0-.2341.0744-.4257.2232-.5748.1701-.149.3615-.2235.5741-.2235h3.8912c.2339 0 .4252.0745.5741.2235.1488.1491.2232.3407.2232.5748v6.8336c1.1908-1.256 2.743-1.884 4.6567-1.884 2.0625 0 3.6891.6706 4.8798 2.0118 1.1908 1.3411 1.8287 3.1613 1.9137 5.4604.0213.2768.0319.66.0319 1.1496 0 .4684-.0106.8409-.0319 1.1177-.1063 2.3843-.7442 4.2364-1.9137 5.5563-1.1694 1.2986-2.7961 1.9479-4.8798 1.9479zm-1.7224-4.279c.9994 0 1.7117-.2981 2.137-.8941.4465-.5961.7017-1.4157.7655-2.4589.0425-.4257.0637-.7557.0637-.9899 0-.2341-.0212-.5641-.0637-.9899-.0638-1.0431-.319-1.8627-.7655-2.4588-.4253-.5961-1.1376-.8941-2.137-.8941-.9355 0-1.6479.2874-2.1369.8622-.4891.5748-.7548 1.2986-.7974 2.1714l-.0319 1.1815.0319 1.2134c.0638.958.319 1.7457.7655 2.3631.4678.596 1.1907.8941 2.1688.8941z"/><path d="m85.835 14.4706c-.2339 0-.4253-.0745-.5741-.2236-.1489-.149-.2233-.3406-.2233-.5747v-2.874c0-.2342.0744-.4258.2233-.5748.1488-.149.3402-.2235.5741-.2235h3.8273c.2339 0 .4253.0745.5741.2235.1489.149.2233.3406.2233.5748v2.874c0 .2341-.0744.4257-.2233.5747-.1488.1491-.3402.2236-.5741.2236zm.0319 18.9999c-.2339 0-.4253-.0745-.5741-.2235-.1489-.149-.2233-.3406-.2233-.5748v-15.0084c0-.2341.0744-.4257.2233-.5747.1488-.1491.3402-.2236.5741-.2236h3.7635c.2339 0 .4253.0745.5741.2236.1489.149.2233.3406.2233.5747v15.0084c0 .2129-.0744.4045-.2233.5748-.1488.149-.3402.2235-.5741.2235z"/><path d="m102.68 33.4705c-4.4019 0-6.6026-2.0969-6.6026-6.2907v-6.1311h-2.4878c-.2339 0-.4359-.0745-.606-.2235-.1488-.149-.2233-.3406-.2233-.5748v-2.5866c0-.2341.0745-.4257.2233-.5747.1701-.1491.3721-.2236.606-.2236h2.4878v-5.2689c0-.2341.0744-.4257.2232-.5748.1702-.149.3615-.2235.5741-.2235h3.7003c.233 0 .425.0745.574.2235.148.1491.223.3407.223.5748v5.2689h3.987c.234 0 .425.0745.574.2236.17.149.255.3406.255.5747v2.5866c0 .2342-.085.4258-.255.5748-.149.149-.34.2235-.574.2235h-3.987v5.684c0 1.5754.606 2.363 1.818 2.363h2.456c.234 0 .425.0746.574.2236s.223.3406.223.5748v2.7781c0 .2129-.074.4045-.223.5748-.149.149-.34.2235-.574.2235z"/><path d="m125.832 33.7899c-2.849 0-5.018-.7664-6.506-2.2992-1.467-1.5328-2.254-3.651-2.36-6.3546-.022-.5748-.032-1.5115-.032-2.8101 0-1.3199.01-2.2778.032-2.8739.106-2.6824.903-4.7899 2.392-6.3227 1.488-1.5541 3.646-2.3311 6.474-2.3311 1.893 0 3.498.3406 4.816 1.0219 1.319.6599 2.318 1.5327 2.999 2.6184.68 1.0858 1.052 2.246 1.116 3.4807v.0639c0 .1703-.075.3193-.223.447-.128.1065-.277.1597-.447.1597h-1.754c-.425 0-.691-.2448-.798-.7345-.361-1.5966-1.01-2.7142-1.945-3.3529-.936-.6599-2.19-.9899-3.764-.9899-3.657 0-5.549 2.033-5.677 6.0991-.021.5748-.032 1.4583-.032 2.6505 0 1.1921.011 2.0969.032 2.7142.128 4.0661 2.02 6.0992 5.677 6.0992 1.574 0 2.828-.3194 3.764-.958.957-.6599 1.605-1.7882 1.945-3.3849.064-.2767.16-.4683.288-.5748.127-.1064.297-.1596.51-.1596h1.754c.191 0 .351.0638.478.1916.149.1064.213.2554.192.447-.064 1.256-.436 2.4269-1.116 3.5126-.681 1.0857-1.68 1.9692-2.999 2.6504-1.318.66-2.923.99-4.816.99z"/><path d="m143.247 33.7899c-1.042 0-2.009-.2129-2.902-.6387s-1.605-1.0006-2.137-1.7244c-.51-.7451-.766-1.5647-.766-2.4588 0-1.405.575-2.5546 1.723-3.4487 1.169-.9154 2.743-1.5115 4.72-1.7882l4.753-.6706v-.9261c0-2.1714-1.244-3.2571-3.732-3.2571-.936 0-1.701.2022-2.297.6067-.595.3832-1.041.8409-1.339 1.3731-.064.1916-.149.33-.255.4151-.085.0852-.213.1278-.383.1278h-1.372c-.191 0-.361-.0639-.51-.1916-.127-.149-.191-.3194-.191-.5109.021-.511.255-1.0858.701-1.7244.468-.66 1.181-1.2241 2.137-1.6924.957-.4897 2.137-.7345 3.541-.7345 2.381 0 4.093.5641 5.135 1.6924 1.042 1.107 1.563 2.4908 1.563 4.1513v10.3462c0 .2129-.075.3938-.224.5428-.127.1278-.297.1916-.51.1916h-1.467c-.213 0-.393-.0638-.542-.1916-.128-.149-.192-.3299-.192-.5428v-1.3731c-.467.6812-1.148 1.256-2.041 1.7243-.893.4684-2.031.7026-3.413.7026zm.67-2.395c1.382 0 2.509-.4471 3.381-1.3412.893-.9154 1.34-2.2246 1.34-3.9277v-.8941l-3.7.5428c-1.51.2129-2.648.5748-3.413 1.0858-.765.4896-1.148 1.1176-1.148 1.884 0 .8515.351 1.5115 1.052 1.9798.702.4471 1.531.6706 2.488.6706z"/><path d="m156.986 39.5377c-.212 0-.393-.0745-.542-.2235-.128-.1277-.191-.298-.191-.5109v-21.2033c0-.2129.063-.3832.191-.5109.149-.1491.33-.2236.542-.2236h1.467c.213 0 .383.0745.511.2236.148.1277.223.298.223.5109v1.405c1.191-1.6392 2.934-2.4588 5.231-2.4588 2.232 0 3.901.7025 5.007 2.1076 1.127 1.405 1.733 3.2145 1.818 5.4285.021.2342.032.5961.032 1.0857 0 .4897-.011.8516-.032 1.0857-.085 2.1927-.691 4.0023-1.818 5.4286-1.127 1.405-2.796 2.1076-5.007 2.1076-2.212 0-3.934-.7984-5.167-2.395v7.4084c0 .2129-.064.3832-.192.5109-.127.149-.297.2235-.51.2235zm6.762-8.3344c1.51 0 2.605-.4683 3.285-1.405.702-.9367 1.084-2.1715 1.148-3.7042.021-.2129.032-.5216.032-.9261 0-4.0235-1.488-6.0353-4.465-6.0353-1.467 0-2.573.4897-3.317 1.469-.723.9579-1.116 2.1075-1.18 3.4487l-.032 1.2134.032 1.2454c.042 1.256.446 2.3524 1.212 3.2891.765.9367 1.86 1.405 3.285 1.405z"/><path d="m175.699 13.7681c-.213 0-.393-.0639-.542-.1916-.128-.1491-.192-.33-.192-.5429v-1.7244c0-.2128.064-.3938.192-.5428.149-.149.329-.2235.542-.2235h2.009c.213 0 .394.0745.542.2235.149.149.224.33.224.5428v1.7244c0 .2129-.075.3938-.224.5429-.148.1277-.329.1916-.542.1916zm.255 19.7024c-.213 0-.393-.0638-.542-.1916-.128-.149-.192-.3299-.192-.5428v-15.1361c0-.2129.064-.3832.192-.5109.149-.1491.329-.2236.542-.2236h1.531c.213 0 .383.0745.51.2236.149.1277.224.298.224.5109v15.1361c0 .2129-.075.3938-.224.5428-.127.1278-.297.1916-.51.1916z"/><path d="m189.42 33.4705c-3.36 0-5.04-1.8734-5.04-5.6201v-8.4303h-2.488c-.212 0-.393-.0638-.542-.1916-.127-.149-.191-.3299-.191-.5428v-1.0857c0-.2129.064-.3832.191-.5109.149-.1491.33-.2236.542-.2236h2.488v-5.3327c0-.2129.064-.3832.192-.511.148-.149.329-.2235.542-.2235h1.499c.212 0 .383.0745.51.2235.149.1278.223.2981.223.511v5.3327h3.955c.213 0 .383.0745.511.2236.148.1277.223.298.223.5109v1.0857c0 .2129-.075.3938-.223.5428-.128.1278-.298.1916-.511.1916h-3.955v8.2067c0 1.0645.181 1.8734.543 2.4269.361.5322.956.7983 1.786.7983h1.945c.213 0 .383.0746.511.2236.148.1277.223.298.223.5109v1.1496c0 .2129-.075.3938-.223.5428-.128.1278-.298.1916-.511.1916z"/><path d="m200.029 33.7899c-1.042 0-2.01-.2129-2.903-.6387s-1.605-1.0006-2.137-1.7244c-.51-.7451-.765-1.5647-.765-2.4588 0-1.405.574-2.5546 1.722-3.4487 1.169-.9154 2.743-1.5115 4.72-1.7882l4.753-.6706v-.9261c0-2.1714-1.244-3.2571-3.732-3.2571-.936 0-1.701.2022-2.296.6067-.596.3832-1.042.8409-1.34 1.3731-.064.1916-.149.33-.255.4151-.085.0852-.213.1278-.383.1278h-1.371c-.192 0-.362-.0639-.511-.1916-.127-.149-.191-.3194-.191-.5109.021-.511.255-1.0858.702-1.7244.467-.66 1.18-1.2241 2.137-1.6924.956-.4897 2.137-.7345 3.54-.7345 2.381 0 4.093.5641 5.135 1.6924 1.042 1.107 1.563 2.4908 1.563 4.1513v10.3462c0 .2129-.075.3938-.223.5428-.128.1278-.298.1916-.511.1916h-1.467c-.213 0-.393-.0638-.542-.1916-.128-.149-.192-.3299-.192-.5428v-1.3731c-.467.6812-1.148 1.256-2.041 1.7243-.893.4684-2.03.7026-3.412.7026zm.669-2.395c1.382 0 2.509-.4471 3.381-1.3412.893-.9154 1.34-2.2246 1.34-3.9277v-.8941l-3.7.5428c-1.51.2129-2.647.5748-3.413 1.0858-.765.4896-1.148 1.1176-1.148 1.884 0 .8515.351 1.5115 1.053 1.9798.701.4471 1.53.6706 2.487.6706z"/><path d="m213.767 33.4705c-.212 0-.393-.0638-.542-.1916-.127-.149-.191-.3299-.191-.5428v-21.2033c0-.2129.064-.3832.191-.511.149-.149.33-.2235.542-.2235h1.499c.213 0 .383.0745.511.2235.149.1278.223.2981.223.511v21.2033c0 .2129-.074.3938-.223.5428-.128.1278-.298.1916-.511.1916z"/></g></svg>