<svg width="230" height="50" viewBox="0 0 230 50" fill="none" xmlns="http://www.w3.org/2000/svg">
<path d="M163.422 11C155.377 11 148.845 17.2655 148.845 25C148.845 32.7345 155.377 39 163.422 39C171.466 39 178 32.7345 178 25C178 17.2655 171.466 11 163.422 11ZM52 12.1233V16.6603H62.8889V33.3828H52V37.9198H78.4887V33.3828H67.6441V16.6603H78.4887V12.1233H52ZM85.5113 12.1233V37.8759H98.2222C106.444 37.7895 112.089 32.1729 112.089 24.957C112.089 17.8274 106.533 12.3393 98.4444 12.1233H85.5113ZM117.866 12.1233V37.9198H144.622V33.3828H122.667V27.2896H139.778V22.7526H122.667V16.6603H144.622V12.1233H117.866ZM163.422 15.883C168.666 15.883 172.977 19.9875 172.977 25.043C172.977 30.0985 168.666 34.2031 163.422 34.2031C158.177 34.2031 153.866 30.0985 153.866 25.043C153.866 19.9875 158.133 15.883 163.422 15.883V15.883ZM90.2665 16.5742H98.3108C103.511 16.7038 106.933 20.2468 106.933 25.043C106.889 29.8825 103.467 33.3824 98.2222 33.4689H90.2665V16.5742Z" fill="#4EE39D"/>
</svg>
