<svg fill="none" height="50" viewBox="0 0 230 50" width="230" xmlns="http://www.w3.org/2000/svg"><path d="m163.422 11c-8.045 0-14.577 6.2655-14.577 14s6.532 14 14.577 14c8.044 0 14.578-6.2655 14.578-14s-6.534-14-14.578-14zm-111.422 1.1233v4.537h10.8889v16.7225h-10.8889v4.537h26.4887v-4.537h-10.8446v-16.7225h10.8446v-4.537zm33.5113 0v25.7526h12.7109c8.2218-.0864 13.8668-5.703 13.8668-12.9189 0-7.1296-5.556-12.6177-13.6446-12.8337zm32.3547 0v25.7965h26.756v-4.537h-21.955v-6.0932h17.111v-4.537h-17.111v-6.0923h21.955v-4.537zm45.556 3.7597c5.244 0 9.555 4.1045 9.555 9.16s-4.311 9.1601-9.555 9.1601c-5.245 0-9.556-4.1046-9.556-9.1601s4.267-9.16 9.556-9.16zm-73.1555.6912h8.0443c5.2002.1296 8.6222 3.6726 8.6222 8.4688-.044 4.8395-3.466 8.3394-8.7108 8.4259h-7.9557z" fill="#9c9ca4"/></svg>