<svg width="230" height="50" viewBox="0 0 230 50" fill="none" xmlns="http://www.w3.org/2000/svg">
<path d="M126.272 42.9406C122.386 38.9113 118.766 35.1525 115.054 31.3008C114.105 32.0985 113.188 32.7568 112.42 33.5627C112.104 33.8959 111.988 34.5379 111.98 35.0405C111.942 38.1355 111.966 41.2333 111.961 44.3283C111.961 44.8173 111.92 45.309 111.893 45.9345C109.592 45.9345 107.394 46.0083 105.209 45.8744C104.755 45.8471 104.09 45.1041 103.979 44.5905C103.79 43.7191 104.504 43.293 105.315 43.2657C106.569 43.222 107.824 43.2547 109.176 43.2547C109.176 31.5303 109.176 19.9397 109.176 8.10048C108.01 8.10048 106.859 8.1114 105.707 8.09775C104.788 8.08682 103.903 7.92019 103.933 6.7319C103.966 5.54634 104.879 5.44253 105.783 5.43707C107.759 5.42887 109.738 5.43434 111.947 5.43434V29.9759C112.066 30.0224 112.182 30.0716 112.301 30.118C115.865 27.0995 119.431 24.0809 123.216 20.8739C122.57 20.8111 122.197 20.7865 121.829 20.7373C120.997 20.6253 120.296 20.2784 120.302 19.3223C120.307 18.3416 121.024 18.033 121.873 18.0138C123 17.9892 124.125 17.9974 125.252 17.9974C128.048 17.9974 130.841 17.9892 133.637 18.0029C134.524 18.0084 135.473 18.0821 135.521 19.2649C135.573 20.5215 134.597 20.6827 133.656 20.7291C132.782 20.7728 131.904 20.7373 130.636 20.7373C133.691 23.7067 136.43 26.3838 139.204 29.0253C139.374 29.1892 139.947 29.2029 140.11 29.0472C142.889 26.4083 145.631 23.7285 148.286 20.7319C147.367 20.7319 146.445 20.7647 145.528 20.7237C144.609 20.68 143.744 20.3959 143.776 19.2677C143.806 18.1887 144.679 18.0138 145.533 18.0056C147.924 17.9838 150.311 17.9838 152.701 17.9974C153.599 18.0029 154.532 18.1368 154.578 19.2923C154.618 20.3303 153.823 20.6062 152.947 20.7428C152.571 20.8002 152.141 20.9504 151.879 21.2072C148.5 24.4852 145.147 27.7879 141.789 31.0877C141.729 31.1451 141.718 31.2516 142.119 30.902C144.698 33.7621 147.258 36.6386 149.865 39.4741C150.814 40.5066 151.833 41.4819 152.899 42.3915C153.374 42.7958 154.015 43.1127 154.626 43.2192C155.475 43.3695 155.986 43.7328 156 44.596C156.013 45.5029 155.405 45.9072 154.599 45.9318C153.023 45.981 151.444 45.9619 149.868 45.9619C148.381 45.9646 146.893 45.9701 145.406 45.9455C144.53 45.9318 143.873 45.533 143.871 44.5851C143.865 43.6208 144.544 43.2602 145.414 43.2493C146.807 43.2329 148.199 43.2438 150.057 43.2438C146.439 39.7145 143.108 36.4637 139.669 33.1065C136.292 36.3872 133.045 39.5424 129.489 42.998C130.36 43.1209 130.776 43.2192 131.195 43.2329C132.05 43.2602 132.907 43.2493 133.764 43.2411C134.68 43.2302 135.448 43.5252 135.462 44.5578C135.475 45.6723 134.664 45.9619 133.699 45.9591C132.077 45.9537 130.454 45.9619 128.83 45.9619C127.432 45.9619 126.034 45.9564 124.639 45.9537C123.736 45.9509 122.968 45.6778 122.922 44.637C122.876 43.5744 123.625 43.2875 124.539 43.2329C124.993 43.2083 125.439 43.0854 126.272 42.9406V42.9406ZM128.232 40.5667C131.233 37.663 134.472 34.5324 137.801 31.3145C134.232 27.8561 130.741 24.4716 127.183 21.0214C123.752 23.9252 120.429 26.7361 116.827 29.7847C120.694 33.4425 124.403 36.9472 128.232 40.5667V40.5667Z" fill="#4EE39D"/>
<path d="M85.8611 8.66867C82.9464 9.58926 80.2886 10.4334 77.6281 11.2693C77.2441 11.3922 76.7845 11.6462 76.4709 11.5342C75.9463 11.343 75.2812 10.9934 75.1136 10.5426C74.9784 10.1793 75.3731 9.43082 75.749 9.10848C76.1626 8.75336 76.8196 8.68233 77.3766 8.50204C80.7212 7.42029 84.0658 6.344 87.4131 5.27317C87.7483 5.16663 88.1025 5.11473 88.6027 5V43.1509C89.2084 43.1864 89.6788 43.2383 90.152 43.2383C92.7206 43.2465 95.2892 43.2465 97.8577 43.2438C98.8095 43.2438 99.6368 43.4869 99.6071 44.6397C99.5801 45.6941 98.7878 45.9564 97.8956 45.9564C90.8198 45.9618 83.7467 45.9646 76.6709 45.9591C75.7733 45.9591 75.0027 45.6778 75 44.6124C74.9973 43.4541 75.822 43.2411 76.771 43.2438C79.2936 43.2493 81.8189 43.2438 84.3416 43.2438H85.8611C85.8611 31.6669 85.8611 20.2702 85.8611 8.66867V8.66867Z" fill="#4EE39D"/>
</svg>
