<svg fill="none" height="50" viewBox="0 0 230 50" width="230" xmlns="http://www.w3.org/2000/svg"><g fill="#9c9ca4"><path d="m136.215 27.2918c.729-1.6036 1.802-3.0583 2.579-4.6445.268-.5486.387-1.5862.066-1.899-.496-.4841-1.46-.7844-2.174-.7075-.873.0968-1.703.638-2.526 1.0401-.265.1291-.445.4245-.665.643.073.0769.147.1539.218.2308.372-.2284.728-.4915 1.121-.6752.405-.1911.845-.3053 1.27-.4518.033.0795.063.1614.094.2408-3.703 2.7505-7.403 5.5034-11.105 8.2538.268-.5386.651-.9904 1.048-1.4323.341-.3823.698-.7496 1.05-1.122-.091-.0769-.182-.1514-.276-.2284-2.358 1.8742-4.423 4.153-7.67 5.4264.18-.901.21-1.5564.443-2.1323.729-1.7823 1.447-3.582 2.356-5.28.389-.7347.311-1.2933-.266-1.5465-.645-.2829-1.663-.5337-2.159-.2308-1.409.8564-2.654 1.9809-3.93 3.0409-3.426 2.8497-7.129 5.2948-11.142 7.2708-.893.4393-1.875.7695-2.855.9507-1.042.1912-1.9281-.2582-2.333-1.2784-.3695-.9334.5618-1.1096 1.038-1.5788 1.708-1.6756 3.393-3.376 5.033-5.1161.739-.7819.777-1.7401.137-2.609-.582-.7869-2.242-1.2511-3.1-.7596-.99.5685-2.101 1.1965-2.7081 2.0902-1.0022 1.4795-1.6272 3.1997-2.4446 4.8033-.2126.4146-.4707.9185-.8503 1.1171-1.8499.9582-3.7327 1.8593-5.6358 2.7107-.9464.4245-1.9283.8192-2.9203-.0893-.2329-.2135-.8579-.0149-1.3008-.0075.0734.4046.0228.8937.2429 1.2015.658.9259 1.5994 1.549 2.7888 1.3603 1.3362-.2135 2.6825-.5014 3.9504-.9557 1.321-.4741 2.5559-1.1816 3.7706-1.76.1265.0596.1746.0695.1999.0968.1038.1266.2101.2557.2961.3922.9794 1.5565 2.3382 2.4402 4.2692 2.2937 2.991-.2234 5.57-1.4745 7.959-3.1377 2.351-1.6408 4.656-3.3437 7.007-5.0367 0 1.343-.157 2.6189.036 3.8402.339 2.1721 2.804 3.2246 4.74 2.0927.933-.5437 1.822-1.1841 2.649-1.8742 2.708-2.2565 5.365-4.5675 8.068-6.8265.645-.5387 1.399-.9482 2.414-1.6259-.218.6826-.309 1.0153-.428 1.3404-.556 1.5019-1.171 2.9838-1.667 4.5055-.777 2.398-.018 4.297 2.136 5.5803 1.171.6976 2.518.3029 3.241-1.0053-.513-.0372-1.002-.1316-1.483-.0968-1.602.1241-2.31-.4593-1.991-1.9834.314-1.5118.769-3.026 1.409-4.431zm-2.561 3.6118c-.116-.0348-.232-.0695-.349-.1043.491-1.4348.985-2.872 1.475-4.3068.17.0546.337.1092.507.1663-.545 1.4149-1.089 2.8299-1.633 4.2448z"/><path d="m172.125 22.7689c-1.427.9235-2.94 1.765-4.198 2.882-2.139 1.899-4.067 4.0239-6.172 5.9602-.749.6901-1.757 1.1096-2.647 1.6532l-.289-.3202c.58-3.3735 2.579-6.0967 4.644-9.2021-.856-.3723-1.716-1.0972-2.437-.983-1.326.2085-2.546.9979-3.857 1.3901-1.822.5437-3.69.9408-5.906 1.4944.48-.8862.749-1.4249 1.057-1.9412 1.263-2.105 2.561-4.1902 3.801-6.3077.696-1.194 1.372-2.4078 1.926-3.6689.314-.7124.041-1.1791-.868-1.5167-.903-.3351-1.174-.072-1.546.5933-.779 1.3951-1.653 2.7405-2.419 4.1455-1.519 2.7803-2.971 5.5952-4.505 8.3655-.207.3749-.698.7497-1.118.8292-1.276.2457-2.587.3078-3.872.5212-.58.0969-1.129.3823-1.691.5834.471.4841.863 1.1146 1.435 1.4.448.2259 1.119.0149 1.693.0075.486-.0075.974-.0025 1.493-.0025-.038.2458-.03.3748-.076.4841-.845 2.0876-1.624 4.2051-2.576 6.2431-.514 1.1021.587 1.055.888 1.5663.385-.2606.79-.4989 1.149-.7893.15-.1192.213-.3476.296-.5337.848-1.9288 1.63-3.8899 2.561-5.779.474-.9631 1.008-1.8717 2.425-2.0305 1.652-.1812 3.259-.7671 4.889-1.1618.749-.1837 1.506-.3301 2.46-.5362-.547 1.3356-1.083 2.4054-1.423 3.5324-.518 1.7203-1.235 3.4406.524 5.0541.932.8539 1.749 1.4422 2.817.8589 1.23-.6727 2.493-1.4323 3.444-2.4277 3.017-3.1601 5.897-6.4442 8.822-9.6911.162-.1813.235-.4394.45-.8589-.559.0794-.936.0297-1.174.1861zm-26.422 11.7192c-.155-1.3405 1.799-5.4438 2.961-6.0644-1.023 2.0951-1.967 4.0289-2.961 6.0644zm17.858-3.5969c1.954-1.8543 3.786-3.5945 5.677-5.3892-.276 1.3405-4.262 5.1583-5.677 5.3892z"/><path d="m216.401 33.7831c-1.126-3.4281-2.386-6.8165-3.608-10.2148-.355-.988-1.455-1.1146-2.179-.3079-.8.8887-1.579 1.8047-2.465 2.604-1.827 1.6558-3.634 3.3462-5.611 4.8183-1.321.9855-2.973 1.4422-4.866 1.5365.549-.7248.969-1.2312 1.336-1.7724.37-.5461.709-1.1145 1.025-1.6929.747-1.3728.349-3.1129-.873-3.9271-1.151-.7646-2.984-.4791-3.963.6479-1.341 1.544-2.024 3.2742-1.647 5.3495.05.2879-.289.8291-.582.9606-1.779.7845-3.508 1.8146-5.629 1.2338-.278-.077-.863.2556-.989.5386-.111.2408.129.8713.385.993.799.3847 1.731.9482 2.513.8291 1.791-.2756 3.517-.9532 5.289-1.3877.584-.1439 1.242-.1141 1.852-.0422.767.0894 1.518.4394 2.278.4394 2.123-.0025 4.016-.906 5.676-2.0405 2.136-1.4646 4.054-3.232 6.23-5.0019.301.3922.873.9458 1.205 1.611.658 1.3256 1.26 2.6884 1.749 4.081 1.047 2.9913 1.467 5.5257-2.723 7.1219-.023.0074-.023.0695-.033.1067 1.369 1.5565 5.051.4419 5.858-1.544.693-1.7054.296-3.3512-.228-4.9399zm-20.164-3.8104c-.136-.0819-.273-.1638-.407-.2482.126-1.4472.832-2.5568 2.113-3.3288.131.0868.266.1762.397.2656-.701 1.1021-1.402 2.2068-2.103 3.3114z"/><path d="m67.1844 30.278c.7491.0075 1.035-.2159 1.0401-.9854.0203-3.1228-1.5437-5.6821-4.1983-6.752-2.9381-1.1816-6.4178-.5213-8.5486 1.6209-2.6597 2.671-2.9178 7.4272-.5567 10.2174 2.3105 2.7306 7.2908 3.4008 10.3984 1.3901 1.192-.772 2.0372-1.8022 2.4168-3.3437-1.5032-.0745-2.8369-.849-4.1882.6479-1.0452 1.1568-2.6977 1.0624-4.1326.4046-1.2754-.5834-1.9309-1.6235-1.9865-3.2097h1.4146c2.7812-.0025 5.5624-.0198 8.341.0099zm-6.5493-5.3395c1.9106-.1316 3.2114 1.06 3.4214 3.237h-6.4911c-.0278-1.7501 1.2881-3.1178 3.0697-3.237z"/><path d="m37.9529 22.5331c.2151-.0844.2911-.134.3695-.1415 3.5986-.3425 3.5986-.3425 3.5986 3.1303 0 1.7302-.0354 3.4604.0228 5.1881.0658 1.9685.8882 2.9639 2.4091 3.0731 1.5463.1117 2.8318-.8465 3.0242-2.6933.2353-2.2441.1518-4.5179.1898-6.7818.0354-2.1597-.2556-1.9412 2.0599-1.9586.62-.0049 1.24 0 1.9258 0v14.1594c-1.1464 0-2.2649.0322-3.3784-.0298-.21-.0124-.5188-.3749-.5719-.6181-.0937-.4295-.0253-.8912-.0253-1.7327-1.2274 1.8022-2.5737 2.7752-4.5096 2.7777-2.9077.005-4.8791-1.4298-5.0639-4.2473-.2176-3.3561-.0506-6.7346-.0506-10.1255z"/><path d="m96.2995 15.7563c-1.2173 1.117-2.4092 2.1348-3.5126 3.2395-1.1135 1.1096-2.1333 2.3085-3.2012 3.4604-1.0224 1.1046-2.0549 2.2018-3.0824 3.299-.1594-.1316-.3213-.2631-.4808-.3972 1.8828-2.2639 3.7656-4.5303 5.6484-6.7942-.3391.0075-.5415.1341-.6883.3054-2.9862 3.4827-5.9445 6.9853-8.9585 10.4432-1.035 1.1915-2.2067 2.2664-3.3177 3.3934-.0885-.077-.1746-.1539-.2606-.2309 0-1.2461-.2252-2.5419.0405-3.7334.8604-3.8402 1.9182-7.6382 2.8697-11.461.4074-1.6359.7845-3.2817 1.0781-4.9399.1771-1.0029-.8377-1.8568-2.06-2.0132-1.3235-.1688-1.1489.7149-1.2046 1.4795-.0227.3276-.0556.6578-.1214.978-1.068 5.1559-2.2346 10.2943-3.1709 15.47-.3315 1.832-.3113 3.7831-.0886 5.6399.291 2.4452 2.4977 3.2544 4.3401 1.6012 1.6904-1.5168 3.2316-3.2246 4.6639-4.9821 1.8752-2.2987 3.5556-4.7488 5.3625-7.102 1.5057-1.9586 3.7807-3.3388 4.5956-5.8311.0456-.1415.3189-.283.4986-.2979 1.2476-.0993 1.2501-.0868 1.0502-1.5266zm-13.9186 16.0037c-.1797-.139-.3593-.278-.5415-.417 1.1008-2.0331 2.1637-4.0959 5.0764-4.5353-1.5108 1.6508-3.0216 3.3015-4.5349 4.9523z"/><path d="m23.875 33.3537c.5972 2.383.3467 2.8249-1.9562 3.3338-.6504.144-1.3362.211-2.0018.1886-2.4952-.0868-3.7808-1.3504-3.844-3.8054-.0481-1.9338-.0101-3.87-.0127-5.8062 0-1.827 0-1.827-1.7866-2.0356-.5441-1.6458-.3315-1.8369 1.1337-2.594.6555-.3401 1.0806-1.2536 1.4197-1.9909.2784-.6057.0759-1.7475.4429-1.9188.7212-.3376 1.693-.1639 2.728-.2085v3.8327c1.116 0 2.0701.0248 3.0216-.0074.7136-.0249.9338.273.9642.9507.0885 2.0281.1164 2.0281-1.9815 2.0281-.6175 0-1.2375 0-1.9562 0 0 2.4699-.0582 4.7661.0253 7.0573.0405 1.1245.8756 1.6657 2.0195 1.477.5744-.0893 1.1261-.3103 1.7841-.5014z"/><path d="m26.2892 22.4338h3.9933c.038.6851.0709 1.2933.1139 2.1373.2885-.3624.4328-.623.6479-.7993.6959-.566 1.3387-1.3206 2.146-1.6011 2.1434-.7398 3.1202.0521 2.9861 2.2142-.0329.5536-.1189 1.1047-.1771 1.631-.2303.0198-.3164.0471-.3872.0297-3.5961-.9656-5.2435.2731-5.2638 3.9693-.0101 1.8519-.0227 3.7037.0076 5.5555.0102.6727-.2075.9284-.9287.9706-3.1405.1788-3.1405.2011-3.1405-2.8671.0025-3.6987.0025-7.3999.0025-11.2401z"/><path d="m187.866 23.1785c-1.954.7844-3.837 1.7476-5.712 2.7083-.999.5138-1.918 1.1841-2.875 1.7823.142-.6901.436-1.2188.754-1.7327 1.061-1.7078.775-2.5096-1.217-3.2593-1.209 1.9486-2.439 3.8973-3.636 5.8658-.939 1.5465-1.792 3.1426-2.769 4.6668-.724 1.1295.228 1.6384.787 2.254.177.1936.853.2457 1.05.0794 1.843-1.549 3.599-3.1948 5.439-4.7487 3.117-2.6363 6.129-5.4959 10.644-5.6201.124-.0049.243-.1886.354-.2805-.924-1.6234-1.658-2.182-2.819-1.7153zm-10.315 7.7549c-.086-.0794-.17-.1614-.256-.2408.403-.4841.732-1.0575 1.22-1.4298 1.063-.8142 2.209-1.5242 3.32-2.2788.089.1315.177.2631.266.3947-1.518 1.184-3.034 2.3706-4.55 3.5547z"/><path d="m105.372 10.5185c-.838.35-1.273 1.8568-2.814.7969-1.159 1.2163-2.397 2.5717-3.7051 3.8526-.3821.3723-.9718.5511-1.4906.7621-.0354.0148-.2758-.4568-.2201-.8714.1923.1043.3846.2061.6453.3476.3239-.8937.6428-1.7724.9009-2.4799.534-.2582 1.073-.4642 1.5536-.7621 1.088-.6702 2.098-1.477 3.237-2.0429.496-.2458 1.227-.0422 1.852-.0422.013.1439.026.2929.041.4393z"/></g></svg>