<svg width="230" height="50" viewBox="0 0 230 50" fill="none" xmlns="http://www.w3.org/2000/svg">
<path fill-rule="evenodd" clip-rule="evenodd" d="M53.8831 49C67.0735 49 77.7663 38.2551 77.7663 25.0001C77.7663 11.7452 67.0735 1 53.8831 1C40.6928 1 30 11.7452 30 25.0001C30 38.2551 40.6928 49 53.8831 49ZM56.9597 16.4713L65.0002 11.7648L65 21.5496C65 24.0618 63.6714 26.3847 61.5112 27.6491L54.1733 31.9443V39.2192L46.1329 34.5127C43.9728 33.2483 42.6441 30.9253 42.6441 28.4132L42.644 18.6284L50.6845 23.3348C51.9124 24.0537 52.8716 25.1145 53.4708 26.3576L53.4709 22.5707C53.4709 20.0586 54.7995 17.7357 56.9597 16.4713V16.4713Z" fill="#4EE39D"/>
<path d="M87.73 35.7633V13.6315H91.9507L101.148 27.701C101.652 28.5441 101.966 29.1238 102.093 29.4399V13.6315H106.124V35.7633H101.903L92.7067 21.599C92.2025 20.7559 91.8877 20.1762 91.7618 19.8601V35.7633H87.73ZM123.73 35.7633H119.699C119.195 35.131 118.943 34.2984 118.943 33.2656C117.851 35.2258 116.108 36.2059 113.715 36.2059C112.161 36.2059 110.891 35.7633 109.904 34.878C108.938 33.9717 108.455 32.7808 108.455 31.3053C108.455 29.8088 108.969 28.639 109.998 27.7959C111.048 26.9317 112.392 26.3731 114.03 26.1202L118.722 25.393V24.7923C118.722 23.2114 117.767 22.421 115.856 22.421C114.974 22.421 114.281 22.5897 113.778 22.9269C113.295 23.2641 113.053 23.6857 113.053 24.1916C113.053 24.318 113.075 24.4445 113.116 24.5709L109.557 25.7724C109.368 25.3508 109.273 24.9082 109.273 24.4445C109.273 23.1588 109.872 22.0416 111.069 21.0931C112.266 20.1236 113.862 19.6387 115.856 19.6387C118.083 19.6387 119.772 20.113 120.927 21.0615C122.103 22.01 122.691 23.4327 122.691 25.3298V31.8744C122.691 33.4553 123.037 34.7515 123.73 35.7633V35.7633ZM114.66 32.981C115.856 32.981 116.832 32.5911 117.588 31.8112C118.344 31.0102 118.722 29.8826 118.722 28.4282V28.1437L114.943 28.776C113.201 29.0711 112.329 29.8404 112.329 31.084C112.329 31.6953 112.539 32.1695 112.959 32.5068C113.379 32.8229 113.946 32.981 114.66 32.981V32.981ZM129.303 23.9386C129.303 24.9082 130.531 25.6459 132.988 26.1518C134.815 26.5312 136.138 27.1109 136.957 27.8907C137.796 28.6495 138.216 29.6823 138.216 30.9892C138.216 32.5068 137.66 33.7609 136.547 34.7515C135.434 35.7211 133.933 36.2059 132.043 36.2059C130.237 36.2059 128.736 35.7633 127.539 34.878C126.363 33.9928 125.482 32.8651 124.894 31.495L128.075 29.4716C128.431 30.5044 128.946 31.3264 129.618 31.9377C130.311 32.5489 131.14 32.8546 132.106 32.8546C132.757 32.8546 133.324 32.707 133.807 32.4119C134.311 32.0957 134.563 31.6637 134.563 31.1156C134.563 30.6098 134.3 30.2093 133.775 29.9142C133.25 29.598 132.4 29.3241 131.224 29.0921C127.591 28.3755 125.776 26.7419 125.776 24.1916C125.776 22.7794 126.342 21.6728 127.477 20.8718C128.61 20.0498 129.985 19.6387 131.602 19.6387C133.261 19.6387 134.584 19.9549 135.571 20.5872C136.579 21.2196 137.408 22.2207 138.059 23.5909L135.193 25.2981C134.479 23.4644 133.303 22.5475 131.666 22.5475C130.091 22.5475 129.303 23.0112 129.303 23.9386V23.9386ZM152.108 29.598L155.32 31.6847C153.808 34.6989 151.372 36.2059 148.013 36.2059C145.662 36.2059 143.698 35.4471 142.123 33.9295C140.569 32.3909 139.793 30.3885 139.793 27.9224C139.793 25.4773 140.591 23.4854 142.187 21.9468C143.782 20.4081 145.725 19.6387 148.013 19.6387C149.734 19.6387 151.215 20.0181 152.454 20.7769C153.714 21.5147 154.616 22.558 155.162 23.907L151.918 26.057C151.1 24.2654 149.787 23.3695 147.982 23.3695C146.784 23.3695 145.788 23.7911 144.989 24.6342C144.213 25.4562 143.824 26.5522 143.824 27.9224C143.824 29.3135 144.213 30.42 144.989 31.2421C145.766 32.0641 146.764 32.4751 147.982 32.4751C148.99 32.4751 149.808 32.2433 150.438 31.7796C151.089 31.2948 151.646 30.5676 152.108 29.598V29.598ZM172.322 28.8708H160.291C160.416 30.0723 160.867 31.0313 161.645 31.748C162.422 32.4435 163.398 32.7913 164.574 32.7913C166.505 32.7913 167.944 31.8323 168.889 29.9142L171.85 31.6215C170.379 34.6777 167.933 36.2059 164.511 36.2059C162.285 36.2059 160.385 35.4366 158.81 33.8979C157.256 32.3381 156.479 30.3462 156.479 27.9224C156.479 25.4773 157.267 23.4854 158.842 21.9468C160.437 20.4081 162.39 19.6387 164.7 19.6387C166.925 19.6387 168.752 20.3765 170.18 21.8519C171.607 23.3063 172.322 25.1822 172.322 27.4797V28.8708ZM164.574 22.674C163.545 22.674 162.642 22.9901 161.865 23.6224C161.109 24.2337 160.584 25.0136 160.291 25.9621H168.669C168.48 24.9293 168.028 24.1283 167.314 23.5592C166.6 22.969 165.686 22.674 164.574 22.674V22.674ZM189.588 25.0768V35.7633H185.619V26.7209C185.619 24.4867 184.559 23.3695 182.438 23.3695C181.388 23.3695 180.517 23.7805 179.824 24.6026C179.152 25.4246 178.816 26.489 178.816 27.7959V35.7633H174.848V20.0814H178.816V22.6107C180.097 20.6294 181.861 19.6387 184.108 19.6387C185.766 19.6387 187.089 20.1341 188.076 21.1247C189.084 22.1154 189.588 23.4327 189.588 25.0768V25.0768ZM190.921 23.3063V20.0814H193.346V15.8447H197.315V20.0814H200.716V23.3063H197.315V30.4517C197.315 31.9271 197.976 32.6649 199.299 32.6649C199.761 32.6649 200.202 32.6016 200.622 32.4751L201 35.7633C200.202 36.0584 199.32 36.2059 198.354 36.2059C195.016 36.2059 193.346 34.5408 193.346 31.2105V23.3063H190.921Z" fill="#4EE39D"/>
</svg>
