<svg width="230" height="50" viewBox="0 0 230 50" fill="none" xmlns="http://www.w3.org/2000/svg">
<path d="M136.215 27.2918C136.944 25.6882 138.017 24.2335 138.794 22.6473C139.062 22.0987 139.181 21.0611 138.86 20.7483C138.364 20.2642 137.4 19.9639 136.686 20.0408C135.813 20.1376 134.983 20.6788 134.16 21.0809C133.895 21.21 133.715 21.5054 133.495 21.7239C133.568 21.8008 133.642 21.8778 133.713 21.9547C134.085 21.7263 134.441 21.4632 134.834 21.2795C135.239 21.0884 135.679 20.9742 136.104 20.8277C136.137 20.9072 136.167 20.9891 136.198 21.0685C132.495 23.819 128.795 26.5719 125.093 29.3223C125.361 28.7837 125.744 28.3319 126.141 27.89C126.482 27.5077 126.839 27.1404 127.191 26.768C127.1 26.6911 127.009 26.6166 126.915 26.5396C124.557 28.4138 122.492 30.6926 119.245 31.966C119.425 31.065 119.455 30.4096 119.688 29.8337C120.417 28.0514 121.135 26.2517 122.044 24.5537C122.433 23.819 122.355 23.2604 121.778 23.0072C121.133 22.7243 120.115 22.4735 119.619 22.7764C118.21 23.6328 116.965 24.7573 115.689 25.8173C112.263 28.667 108.56 31.1121 104.547 33.0881C103.654 33.5274 102.672 33.8576 101.692 34.0388C100.65 34.23 99.7637 33.7806 99.3588 32.7604C98.9893 31.827 99.9206 31.6508 100.397 31.1816C102.105 29.506 103.79 27.8056 105.43 26.0655C106.169 25.2836 106.207 24.3254 105.567 23.4565C104.985 22.6696 103.325 22.2054 102.467 22.6969C101.477 23.2654 100.366 23.8934 99.7587 24.7871C98.7565 26.2666 98.1315 27.9868 97.3141 29.5904C97.1015 30.005 96.8434 30.5089 96.4638 30.7075C94.6139 31.6657 92.7311 32.5668 90.828 33.4182C89.8816 33.8427 88.8997 34.2374 87.9077 33.3289C87.6748 33.1154 87.0498 33.314 86.6069 33.3214C86.6803 33.726 86.6297 34.2151 86.8498 34.5229C87.5078 35.4488 88.4492 36.0719 89.6386 35.8832C90.9748 35.6697 92.3211 35.3818 93.589 34.9275C94.91 34.4534 96.1449 33.7459 97.3596 33.1675C97.4861 33.2271 97.5342 33.237 97.5595 33.2643C97.6633 33.3909 97.7696 33.52 97.8556 33.6565C98.835 35.213 100.194 36.0967 102.125 35.9502C105.116 35.7268 107.695 34.4757 110.084 32.8125C112.435 31.1717 114.74 29.4688 117.091 27.7758C117.091 29.1188 116.934 30.3947 117.127 31.616C117.466 33.7881 119.931 34.8406 121.867 33.7087C122.8 33.165 123.689 32.5246 124.516 31.8345C127.224 29.578 129.881 27.267 132.584 25.008C133.229 24.4693 133.983 24.0598 134.998 23.3821C134.78 24.0647 134.689 24.3974 134.57 24.7225C134.014 26.2244 133.399 27.7063 132.903 29.228C132.126 31.626 132.885 33.525 135.039 34.8083C136.21 35.5059 137.557 35.1112 138.28 33.803C137.767 33.7658 137.278 33.6714 136.797 33.7062C135.195 33.8303 134.487 33.2469 134.806 31.7228C135.12 30.211 135.575 28.6968 136.215 27.2918V27.2918ZM133.654 30.9036C133.538 30.8688 133.422 30.8341 133.305 30.7993C133.796 29.3645 134.29 27.9273 134.78 26.4925C134.95 26.5471 135.117 26.6017 135.287 26.6588C134.742 28.0737 134.198 29.4887 133.654 30.9036Z" fill="#4EE39D"/>
<path d="M172.125 22.7689C170.698 23.6924 169.185 24.5339 167.927 25.6509C165.788 27.5499 163.86 29.6748 161.755 31.6111C161.006 32.3012 159.998 32.7207 159.108 33.2643L158.819 32.9441C159.399 29.5706 161.398 26.8474 163.463 23.742C162.607 23.3697 161.747 22.6448 161.026 22.759C159.7 22.9675 158.48 23.7569 157.169 24.1491C155.347 24.6928 153.479 25.0899 151.263 25.6435C151.743 24.7573 152.012 24.2186 152.32 23.7023C153.583 21.5973 154.881 19.5121 156.121 17.3946C156.817 16.2006 157.493 14.9868 158.047 13.7257C158.361 13.0133 158.088 12.5466 157.179 12.209C156.276 11.8739 156.005 12.137 155.633 12.8023C154.854 14.1974 153.98 15.5428 153.214 16.9478C151.695 19.7281 150.243 22.543 148.709 25.3133C148.502 25.6882 148.011 26.063 147.591 26.1425C146.315 26.3882 145.004 26.4503 143.719 26.6637C143.139 26.7606 142.59 27.046 142.028 27.2471C142.499 27.7312 142.891 28.3617 143.463 28.6471C143.911 28.873 144.582 28.662 145.156 28.6546C145.642 28.6471 146.13 28.6521 146.649 28.6521C146.611 28.8979 146.619 29.0269 146.573 29.1362C145.728 31.2238 144.949 33.3413 143.997 35.3793C143.483 36.4814 144.584 36.4343 144.885 36.9456C145.27 36.685 145.675 36.4467 146.034 36.1563C146.184 36.0371 146.247 35.8087 146.33 35.6226C147.178 33.6938 147.96 31.7327 148.891 29.8436C149.365 28.8805 149.899 27.9719 151.316 27.8131C152.968 27.6319 154.575 27.046 156.205 26.6513C156.954 26.4676 157.711 26.3212 158.665 26.1151C158.118 27.4507 157.582 28.5205 157.242 29.6475C156.724 31.3678 156.007 33.0881 157.766 34.7016C158.698 35.5555 159.515 36.1438 160.583 35.5605C161.813 34.8878 163.076 34.1282 164.027 33.1328C167.044 29.9727 169.924 26.6886 172.849 23.4417C173.011 23.2604 173.084 23.0023 173.299 22.5828C172.74 22.6622 172.363 22.6125 172.125 22.7689V22.7689ZM145.703 34.4881C145.548 33.1476 147.502 29.0443 148.664 28.4237C147.641 30.5188 146.697 32.4526 145.703 34.4881ZM163.561 30.8912C165.515 29.0369 167.347 27.2967 169.238 25.502C168.962 26.8425 164.976 30.6603 163.561 30.8912Z" fill="#4EE39D"/>
<path d="M216.401 33.7831C215.275 30.355 214.015 26.9666 212.793 23.5683C212.438 22.5803 211.338 22.4537 210.614 23.2604C209.814 24.1491 209.035 25.0651 208.149 25.8644C206.322 27.5202 204.515 29.2106 202.538 30.6827C201.217 31.6682 199.565 32.1249 197.672 32.2192C198.221 31.4944 198.641 30.988 199.008 30.4468C199.378 29.9007 199.717 29.3323 200.033 28.7539C200.78 27.3811 200.382 25.641 199.16 24.8268C198.009 24.0622 196.176 24.3477 195.197 25.4747C193.856 27.0187 193.173 28.7489 193.55 30.8242C193.6 31.1121 193.261 31.6533 192.968 31.7848C191.189 32.5693 189.46 33.5994 187.339 33.0186C187.061 32.9416 186.476 33.2742 186.35 33.5572C186.239 33.798 186.479 34.4285 186.735 34.5502C187.534 34.9349 188.466 35.4984 189.248 35.3793C191.039 35.1037 192.765 34.4261 194.537 33.9916C195.121 33.8477 195.779 33.8775 196.389 33.9494C197.156 34.0388 197.907 34.3888 198.667 34.3888C200.79 34.3863 202.683 33.4828 204.343 32.3483C206.479 30.8837 208.397 29.1163 210.573 27.3464C210.874 27.7386 211.446 28.2922 211.778 28.9574C212.436 30.283 213.038 31.6458 213.527 33.0384C214.574 36.0297 214.994 38.5641 210.804 40.1603C210.781 40.1677 210.781 40.2298 210.771 40.267C212.14 41.8235 215.822 40.7089 216.629 38.723C217.322 37.0176 216.925 35.3718 216.401 33.7831V33.7831ZM196.237 29.9727C196.101 29.8908 195.964 29.8089 195.83 29.7245C195.956 28.2773 196.662 27.1677 197.943 26.3957C198.074 26.4825 198.209 26.5719 198.34 26.6613C197.639 27.7634 196.938 28.8681 196.237 29.9727V29.9727Z" fill="#4EE39D"/>
<path d="M67.1845 30.278C67.9336 30.2855 68.2195 30.0621 68.2246 29.2926C68.2449 26.1698 66.6809 23.6105 64.0263 22.5406C61.0882 21.359 57.6085 22.0193 55.4777 24.1615C52.818 26.8325 52.5599 31.5887 54.921 34.3789C57.2315 37.1095 62.2118 37.7797 65.3194 35.769C66.5114 34.997 67.3566 33.9668 67.7362 32.4253C66.233 32.3508 64.8993 31.5763 63.548 33.0732C62.5028 34.23 60.8503 34.1356 59.4154 33.4778C58.14 32.8944 57.4845 31.8543 57.4289 30.2681H58.8435C61.6247 30.2656 64.4059 30.2483 67.1845 30.278V30.278ZM60.6352 24.9385C62.5458 24.8069 63.8466 25.9985 64.0566 28.1755H57.5655C57.5377 26.4254 58.8536 25.0577 60.6352 24.9385Z" fill="#4EE39D"/>
<path d="M37.9528 22.5331C38.1679 22.4487 38.2439 22.3991 38.3223 22.3916C41.9209 22.0491 41.9209 22.0491 41.9209 25.5219C41.9209 27.2521 41.8855 28.9823 41.9437 30.71C42.0095 32.6785 42.8319 33.6739 44.3528 33.7831C45.8991 33.8948 47.1846 32.9366 47.377 31.0898C47.6123 28.8457 47.5288 26.5719 47.5668 24.308C47.6022 22.1483 47.3112 22.3668 49.6267 22.3494C50.2467 22.3445 50.8667 22.3494 51.5525 22.3494V36.5088C50.4061 36.5088 49.2876 36.541 48.1741 36.479C47.9641 36.4666 47.6553 36.1041 47.6022 35.8609C47.5085 35.4314 47.5769 34.9697 47.5769 34.1282C46.3495 35.9304 45.0032 36.9034 43.0673 36.9059C40.1596 36.9109 38.1882 35.4761 38.0034 32.6586C37.7858 29.3025 37.9528 25.924 37.9528 22.5331V22.5331Z" fill="#4EE39D"/>
<path d="M96.2997 15.7562C95.0824 16.8732 93.8905 17.891 92.7871 18.9957C91.6736 20.1053 90.6538 21.3042 89.5859 22.4561C88.5635 23.5607 87.531 24.6579 86.5035 25.7551C86.3441 25.6235 86.1822 25.492 86.0227 25.3579C87.9055 23.094 89.7883 20.8277 91.6711 18.5638C91.332 18.5713 91.1296 18.6978 90.9828 18.8691C87.9966 22.3518 85.0383 25.8544 82.0243 29.3123C80.9893 30.5038 79.8176 31.5787 78.7066 32.7057C78.6181 32.6287 78.532 32.5518 78.446 32.4748C78.446 31.2287 78.2208 29.9329 78.4865 28.7414C79.3469 24.9012 80.4047 21.1032 81.3562 17.2804C81.7636 15.6445 82.1407 13.9987 82.4343 12.3405C82.6114 11.3376 81.5966 10.4837 80.3743 10.3273C79.0508 10.1585 79.2254 11.0422 79.1697 11.8068C79.147 12.1344 79.1141 12.4646 79.0483 12.7848C77.9803 17.9407 76.8137 23.0791 75.8774 28.2548C75.5459 30.0868 75.5661 32.0379 75.7888 33.8947C76.0798 36.3399 78.2865 37.1491 80.1289 35.4959C81.8193 33.9791 83.3605 32.2713 84.7928 30.5138C86.668 28.2151 88.3484 25.765 90.1553 23.4118C91.661 21.4532 93.936 20.073 94.7509 17.5807C94.7965 17.4392 95.0698 17.2977 95.2495 17.2828C96.4971 17.1835 96.4996 17.196 96.2997 15.7562V15.7562ZM82.3811 31.7599C82.2014 31.6209 82.0218 31.4819 81.8396 31.3429C82.9404 29.3098 84.0033 27.247 86.916 26.8076C85.4052 28.4584 83.8944 30.1091 82.3811 31.7599Z" fill="#4EE39D"/>
<path d="M23.875 33.3537C24.4722 35.7367 24.2217 36.1786 21.9188 36.6875C21.2684 36.8315 20.5826 36.8985 19.917 36.8761C17.4218 36.7893 16.1362 35.5257 16.073 33.0707C16.0249 31.1369 16.0629 29.2007 16.0603 27.2645C16.0603 25.4375 16.0603 25.4375 14.2737 25.2289C13.7296 23.5831 13.9422 23.392 15.4074 22.6349C16.0629 22.2948 16.488 21.3813 16.8271 20.644C17.1055 20.0383 16.903 18.8965 17.27 18.7252C17.9912 18.3876 18.963 18.5613 19.998 18.5167V22.3494C21.114 22.3494 22.0681 22.3742 23.0196 22.342C23.7332 22.3171 23.9534 22.615 23.9838 23.2927C24.0723 25.3208 24.1002 25.3208 22.0023 25.3208C21.3848 25.3208 20.7648 25.3208 20.0461 25.3208C20.0461 27.7907 19.9879 30.0869 20.0714 32.3781C20.1119 33.5026 20.947 34.0438 22.0909 33.8551C22.6653 33.7658 23.217 33.5448 23.875 33.3537V33.3537Z" fill="#4EE39D"/>
<path d="M26.2891 22.4338H30.2824C30.3204 23.1189 30.3533 23.7271 30.3963 24.5711C30.6848 24.2087 30.8291 23.9481 31.0442 23.7718C31.7401 23.2058 32.3829 22.4512 33.1902 22.1707C35.3336 21.4309 36.3104 22.2228 36.1763 24.3849C36.1434 24.9385 36.0574 25.4896 35.9992 26.0159C35.7689 26.0357 35.6828 26.063 35.612 26.0456C32.0159 25.08 30.3685 26.3187 30.3482 30.0149C30.3381 31.8668 30.3255 33.7186 30.3558 35.5704C30.366 36.2431 30.1483 36.4988 29.4271 36.541C26.2866 36.7198 26.2866 36.7421 26.2866 33.6739C26.2891 29.9752 26.2891 26.274 26.2891 22.4338V22.4338Z" fill="#4EE39D"/>
<path d="M187.866 23.1785C185.912 23.9629 184.029 24.9261 182.154 25.8868C181.155 26.4006 180.236 27.0709 179.279 27.6691C179.421 26.979 179.715 26.4503 180.033 25.9364C181.094 24.2286 180.808 23.4268 178.816 22.6771C177.607 24.6257 176.377 26.5744 175.18 28.5429C174.241 30.0894 173.388 31.6855 172.411 33.2097C171.687 34.3392 172.639 34.8481 173.198 35.4637C173.375 35.6573 174.051 35.7094 174.248 35.5431C176.091 33.9941 177.847 32.3483 179.687 30.7944C182.804 28.1581 185.816 25.2985 190.331 25.1743C190.455 25.1694 190.574 24.9857 190.685 24.8938C189.761 23.2704 189.027 22.7118 187.866 23.1785V23.1785ZM177.551 30.9334C177.465 30.854 177.381 30.772 177.295 30.6926C177.698 30.2085 178.027 29.6351 178.515 29.2628C179.578 28.4486 180.724 27.7386 181.835 26.984C181.924 27.1155 182.012 27.2471 182.101 27.3787C180.583 28.5627 179.067 29.7493 177.551 30.9334V30.9334Z" fill="#4EE39D"/>
<path d="M105.372 10.5185C104.534 10.8685 104.099 12.3753 102.558 11.3154C101.399 12.5317 100.161 13.8871 98.8528 15.168C98.4707 15.5403 97.881 15.7191 97.3622 15.9301C97.3268 15.9449 97.0864 15.4733 97.1421 15.0587C97.3344 15.163 97.5267 15.2648 97.7874 15.4063C98.1113 14.5126 98.4302 13.6339 98.6883 12.9264C99.2223 12.6682 99.7613 12.4622 100.242 12.1643C101.33 11.4941 102.34 10.6873 103.479 10.1214C103.975 9.87557 104.706 10.0792 105.331 10.0792C105.344 10.2231 105.357 10.3721 105.372 10.5185Z" fill="#4EE39D"/>
</svg>
