<svg fill="none" height="50" viewBox="0 0 230 50" width="230" xmlns="http://www.w3.org/2000/svg"><g fill="#9c9ca4"><path d="m88.5379 22.2629c1.1205-1.6257 2.4602-2.6702 4.219-3.1134 4.8273-1.217 8.9151 1.8564 9.0231 6.9334.093 4.3868.021 8.7772.021 13.1657 0 .1181-.029.2362-.056.4324-1.622 0-3.2402 0-5.0182 0 0-.3252 0-.6721 0-1.0191 0-3.6928.0245-7.3857-.0105-11.0786-.0263-2.7047-1.9184-4.2123-4.3996-3.5838-1.664.4214-2.6846 1.8746-2.7004 3.9689-.0245 3.3605-.0087 6.7191-.0087 10.0796v1.662c-1.7605 0-3.4141 0-5.2079 0 0-.3723 0-.7211 0-1.0699 0-3.662.0245-7.3257-.0105-10.9877-.0263-2.603-1.5606-3.9944-4.0033-3.731-1.8499.198-3.1387 1.7637-3.1545 3.9326-.0263 3.5712-.0088 7.1423-.0105 10.7153v1.128c-1.7728 0-3.4474 0-5.1956 0-.0176-.3197-.0491-.6121-.0491-.9046-.0036-6.0833.0105-12.1684-.0176-18.2518-.0035-.7665.1438-1.0935.9557-1.039 1.0766.0727 2.162.0527 3.2422.0055.6558-.0291.9136.1961.8417.8773-.0404.3797-.007.7666-.007 1.4023 1.7096-2.0035 3.6753-2.9136 6.0127-2.8427 2.3251.0726 4.2575.9627 5.534 3.3186z"/><path d="m140.252 26.2409c-.103.2997-.214.5976-.312.8991-1.282 3.929-2.574 7.8526-3.831 11.7907-.193.6049-.446.8773-1.103.8483-1.284-.0582-2.571-.0364-3.856-.0073-.484.0109-.726-.1453-.879-.643-1.918-6.3231-3.858-12.639-5.788-18.9584-.051-.1671-.063-.347-.114-.6358 1.738 0 3.424-.0254 5.108.0363.193.0073.456.4778.54.7775 1.075 3.8055 2.122 7.62 3.179 11.431.039.1398.107.2688.247.6158.176-.4632.295-.743.39-1.0336 1.208-3.6983 2.423-7.3948 3.605-11.1004.175-.5504.428-.7647.992-.7484 1.343.0382 2.69.0473 4.031-.0036.619-.0236.86.2289 1.042.8065 1.157 3.6838 2.35 7.3548 3.532 11.0295.098.3052.21.6031.501.8974.095-.3016.197-.5995.281-.9028 1.024-3.662 2.06-7.3222 3.051-10.9932.175-.6503.459-.8574 1.094-.8356 1.396.0454 2.795.0145 4.263.0145-.048.2925-.056.4959-.113.683-1.881 6.2396-3.777 12.4737-5.641 18.7186-.185.6231-.434.8828-1.088.852-1.196-.0564-2.399-.0636-3.593.0018-.697.0381-.96-.2598-1.163-.8937-1.299-4.0489-2.634-8.0869-3.958-12.1267-.054-.1671-.133-.327-.201-.4904-.072-.0109-.144-.02-.216-.0291z"/><path d="m212 39.7591c-2.162 0-4.114.0272-6.064-.0309-.287-.0091-.636-.3651-.831-.6539-1.378-2.0272-2.721-4.0798-4.08-6.1233-.181-.2707-.375-.5304-.649-.9192-.98 1.2171-2.441 1.9382-2.209 3.8782.145 1.217.026 2.4667.026 3.7746-1.747 0-3.423 0-5.173 0 0-9.8616 0-19.7358 0-29.6846h5.152v17.0093c.496-.4995.81-.7901 1.096-1.108 1.79-1.9927 3.57-3.9944 5.367-5.9798.163-.1798.423-.3778.639-.3815 2.097-.029 4.196-.0163 6.538-.0163-2.679 2.9281-5.211 5.6928-7.78 8.501 2.644 3.8963 5.243 7.7218 7.968 11.7344z"/><path d="m109.445 31.0908c.123 1.4496.659 2.5049 1.594 3.3569 2.155 1.9672 6.297 1.7202 7.599-1.3024.085-.1962.402-.465.539-.4269 1.343.3796 2.672.8156 4.075 1.2588-1.028 3.1879-3.046 5.1442-6.032 6.0288-5.31 1.5695-10.758-1.3333-12.408-6.5828-1.85-5.8799.677-11.9323 5.822-13.9413 5.986-2.3396 11.971 1.3623 12.765 7.9179.105.8665.07 1.7511.126 2.6248.051.7938-.217 1.0935-1.046 1.0844-3.972-.0454-7.944-.02-11.917-.02-.339.0018-.679.0018-1.117.0018zm8.787-3.8563c.021-2.2905-1.643-3.8364-4.105-3.8963-2.438-.0581-4.388 1.613-4.466 3.8963z"/><path d="m176.683 29.5886c.01 6.2414-4.366 10.8443-10.279 10.8116-5.86-.0327-10.162-4.5557-10.192-10.7226-.031-6.2032 4.295-10.7825 10.194-10.7952 5.909-.0127 10.266 4.5266 10.277 10.7062zm-5.25.1399c.017-1.6257-.347-3.1171-1.447-4.345-2.393-2.672-6.877-1.7692-8.059 1.673-.831 2.4213-.714 4.7991 1 6.8208 1.315 1.5512 3.489 1.9545 5.4 1.1734 1.934-.7883 3.085-2.7628 3.106-5.3222z"/><path d="m56.4472 26.5153c-1.3502-.2834-2.6864-.5704-4.026-.8411-.6383-.1289-.4787-.5885-.3753-.9827.5699-2.1652 1.8289-3.7909 3.7771-4.7427 3.151-1.5404 6.3617-1.495 9.4618.1035 2.5146 1.2951 3.4509 3.6638 3.4807 6.4521.0351 3.1751.0088 6.3521.0088 9.5273v3.7256c-1.3221 0-2.774.0163-4.2224-.0237-.1543-.0036-.3893-.3215-.4314-.5267-.1017-.4887-.1105-.9973-.1455-1.3733-1.0539.6921-2.0183 1.5949-3.1493 2.0163-2.5987.9682-5.1395.6939-7.3331-1.2025-1.7202-1.4877-2.3059-3.4531-1.8552-5.7091.4752-2.3796 2.0182-3.8291 4.1838-4.4195 1.9096-.5213 3.898-.7393 5.8532-1.0771.8434-.1472 1.7482-.1962 1.9323-1.3297.1666-1.0172-.4629-2.0726-1.5132-2.4994-1.9885-.8084-4.8467-.2961-5.4762 2.5067-.0246.1053-.0894.2071-.1701.396zm7.0263 4.1978c-.3051.0382-.6208.0636-.9311.1181-1.3485.2325-2.7162.396-4.0401.7356-1.2029.3088-1.8289 1.3242-1.7517 2.4868.0736 1.108.8013 1.9472 1.899 2.187 3.0967.6812 5.7059-2.2742 4.8239-5.5275z"/><path d="m190.641 24.8169c-.907 0-1.668-.0527-2.418.0109-2.038.1707-3.497 1.4423-3.976 3.4931-.17.7265-.236 1.4949-.245 2.2451-.028 2.692-.011 5.3858-.012 8.0796v1.0481c-1.759 0-3.434 0-5.184 0 0-6.6773 0-13.3437 0-20.1518 1.566 0 3.13-.0127 4.693.0273.114.0036.298.3887.314.6085.043.5976.015 1.2006.015 1.9636.228-.1999.365-.2834.454-.4033 1.484-2.0381 3.569-2.474 5.854-2.3305.177.0109.48.2906.484.4505.035 1.6221.021 3.2496.021 4.9589z"/><path d="m37.804 19.5764h5.0238v2.5049c1.5553-2.1925 3.6595-2.7847 6.0583-2.7211.5489.0145.7768.1925.7645.7938-.0315 1.5331-.0105 3.0698-.0105 4.6901-.4015-.02-.6838-.0291-.9679-.0472-3.7069-.2198-5.6428 1.6475-5.6726 5.5129-.021 2.7828-.0052 5.5657-.0052 8.3485v1.0408c-1.764 0-3.4421 0-5.1904 0 0-6.6719 0-13.3383 0-20.1227z"/><path d="m23.4323 15.958c0-1.7765 0-3.553 0-5.3785h12.2167v5.3476c-4.0909 0-8.1696 0-12.2465 0z"/><path d="m18 39.6846c0-3.751 0-7.4312 0-11.1785h5.3394v11.1785c-1.7395 0-3.5 0-5.3394 0z"/><path d="m23.4796 28.3645c0-1.7693 0-3.3914 0-5.0988h10.8542c0 1.5512.014 3.1079-.0228 4.6646-.0035.149-.3297.4142-.5068.416-3.4105.0254-6.8211.0182-10.3246.0182z"/><path d="m23.4008 15.9271v7.115c-1.8465 0-3.5842 0-5.3833 0 0-2.3341 0-4.6465 0-7.0841h5.4148z"/></g></svg>