<svg width="230" height="50" viewBox="0 0 230 50" fill="none" xmlns="http://www.w3.org/2000/svg">
<path d="M88.5379 22.2629C89.6584 20.6372 90.9981 19.5927 92.7569 19.1495C97.5842 17.9325 101.672 21.0059 101.78 26.0829C101.873 30.4697 101.801 34.8601 101.801 39.2486C101.801 39.3667 101.772 39.4848 101.745 39.681C100.123 39.681 98.5048 39.681 96.7268 39.681C96.7268 39.3558 96.7268 39.0089 96.7268 38.6619C96.7268 34.9691 96.7513 31.2762 96.7163 27.5833C96.69 24.8786 94.7979 23.371 92.3167 23.9995C90.6527 24.4209 89.6321 25.8741 89.6163 27.9684C89.5918 31.3289 89.6076 34.6875 89.6076 38.048V39.71C87.8471 39.71 86.1934 39.71 84.3996 39.71C84.3996 39.3377 84.3996 38.9889 84.3996 38.6401C84.3996 34.9781 84.4242 31.3144 84.3892 27.6524C84.3629 25.0494 82.8286 23.658 80.3859 23.9214C78.536 24.1194 77.2472 25.6851 77.2314 27.854C77.2051 31.4252 77.2226 34.9963 77.2209 38.5693V39.6973C75.4481 39.6973 73.7735 39.6973 72.0253 39.6973C72.0077 39.3776 71.9761 39.0852 71.9761 38.7927C71.9725 32.7094 71.9867 26.6243 71.9586 20.5409C71.9551 19.7744 72.1024 19.4474 72.9143 19.5019C73.9909 19.5746 75.0763 19.5546 76.1565 19.5074C76.8123 19.4783 77.0701 19.7035 76.9982 20.3847C76.9578 20.7644 76.9912 21.1513 76.9912 21.787C78.7008 19.7835 80.6665 18.8734 83.0039 18.9443C85.329 19.0169 87.2614 19.907 88.5379 22.2629V22.2629Z" fill="#4EE39D"/>
<path d="M140.252 26.2409C140.149 26.5406 140.038 26.8385 139.94 27.14C138.658 31.069 137.366 34.9926 136.109 38.9307C135.916 39.5356 135.663 39.808 135.006 39.779C133.722 39.7208 132.435 39.7426 131.15 39.7717C130.666 39.7826 130.424 39.6264 130.271 39.1287C128.353 32.8056 126.413 26.4897 124.483 20.1703C124.432 20.0032 124.42 19.8233 124.369 19.5345C126.107 19.5345 127.793 19.5091 129.477 19.5708C129.67 19.5781 129.933 20.0486 130.017 20.3483C131.092 24.1538 132.139 27.9683 133.196 31.7793C133.235 31.9191 133.303 32.0481 133.443 32.3951C133.619 31.9319 133.738 31.6521 133.833 31.3615C135.041 27.6632 136.256 23.9667 137.438 20.2611C137.613 19.7107 137.866 19.4964 138.43 19.5127C139.773 19.5509 141.12 19.56 142.461 19.5091C143.08 19.4855 143.321 19.738 143.503 20.3156C144.66 23.9994 145.853 27.6704 147.035 31.3451C147.133 31.6503 147.245 31.9482 147.536 32.2425C147.631 31.9409 147.733 31.643 147.817 31.3397C148.841 27.6777 149.877 24.0175 150.868 20.3465C151.043 19.6962 151.327 19.4891 151.962 19.5109C153.358 19.5563 154.757 19.5254 156.225 19.5254C156.177 19.8179 156.169 20.0213 156.112 20.2084C154.231 26.448 152.335 32.6821 150.471 38.927C150.286 39.5501 150.037 39.8098 149.383 39.779C148.187 39.7226 146.984 39.7154 145.79 39.7808C145.093 39.8189 144.83 39.521 144.627 38.8871C143.328 34.8382 141.993 30.8002 140.669 26.7604C140.615 26.5933 140.536 26.4334 140.468 26.27C140.396 26.2591 140.324 26.25 140.252 26.2409V26.2409Z" fill="#4EE39D"/>
<path d="M212 39.7591C209.838 39.7591 207.886 39.7863 205.936 39.7282C205.649 39.7191 205.3 39.3631 205.105 39.0743C203.727 37.0471 202.384 34.9945 201.025 32.951C200.844 32.6803 200.65 32.4206 200.376 32.0318C199.396 33.2489 197.935 33.97 198.167 35.91C198.312 37.127 198.193 38.3767 198.193 39.6846C196.446 39.6846 194.77 39.6846 193.02 39.6846C193.02 29.823 193.02 19.9488 193.02 10H198.172V27.0093C198.668 26.5098 198.982 26.2192 199.268 25.9013C201.058 23.9086 202.838 21.9069 204.635 19.9215C204.798 19.7417 205.058 19.5437 205.274 19.54C207.371 19.511 209.47 19.5237 211.812 19.5237C209.133 22.4518 206.601 25.2165 204.032 28.0247C206.676 31.921 209.275 35.7465 212 39.7591V39.7591Z" fill="#4EE39D"/>
<path d="M109.445 31.0908C109.568 32.5404 110.104 33.5957 111.039 34.4477C113.194 36.4149 117.336 36.1679 118.638 33.1453C118.723 32.9491 119.04 32.6803 119.177 32.7184C120.52 33.098 121.849 33.534 123.252 33.9772C122.224 37.1651 120.206 39.1214 117.22 40.006C111.91 41.5755 106.462 38.6727 104.812 33.4232C102.962 27.5433 105.489 21.4909 110.634 19.4819C116.62 17.1423 122.605 20.8442 123.399 27.3998C123.504 28.2663 123.469 29.1509 123.525 30.0246C123.576 30.8184 123.308 31.1181 122.479 31.109C118.507 31.0636 114.535 31.089 110.562 31.089C110.223 31.0908 109.883 31.0908 109.445 31.0908ZM118.232 27.2345C118.253 24.944 116.589 23.3981 114.127 23.3382C111.689 23.2801 109.739 24.9512 109.661 27.2345H118.232Z" fill="#4EE39D"/>
<path d="M176.683 29.5886C176.693 35.83 172.317 40.4329 166.404 40.4002C160.544 40.3675 156.242 35.8445 156.212 29.6776C156.181 23.4744 160.507 18.8951 166.406 18.8824C172.315 18.8697 176.672 23.409 176.683 29.5886V29.5886ZM171.433 29.7285C171.45 28.1028 171.086 26.6114 169.986 25.3835C167.593 22.7115 163.109 23.6143 161.927 27.0565C161.096 29.4778 161.213 31.8556 162.927 33.8773C164.242 35.4285 166.416 35.8318 168.327 35.0507C170.261 34.2624 171.412 32.2879 171.433 29.7285Z" fill="#4EE39D"/>
<path d="M56.447 26.5153C55.0968 26.2319 53.7606 25.9449 52.421 25.6742C51.7827 25.5453 51.9423 25.0857 52.0457 24.6915C52.6156 22.5263 53.8746 20.9006 55.8228 19.9488C58.9738 18.4084 62.1845 18.4538 65.2846 20.0523C67.7992 21.3474 68.7355 23.7161 68.7653 26.5044C68.8004 29.6795 68.7741 32.8565 68.7741 36.0317V39.7573C67.452 39.7573 66.0001 39.7736 64.5517 39.7336C64.3974 39.73 64.1624 39.4121 64.1203 39.2069C64.0186 38.7182 64.0098 38.2096 63.9748 37.8336C62.9209 38.5257 61.9565 39.4285 60.8255 39.8499C58.2268 40.8181 55.686 40.5438 53.4924 38.6474C51.7722 37.1597 51.1865 35.1943 51.6372 32.9383C52.1124 30.5587 53.6554 29.1092 55.821 28.5188C57.7306 27.9975 59.719 27.7795 61.6742 27.4417C62.5176 27.2945 63.4224 27.2455 63.6065 26.112C63.7731 25.0948 63.1436 24.0394 62.0933 23.6126C60.1048 22.8042 57.2466 23.3165 56.6171 26.1193C56.5925 26.2246 56.5277 26.3264 56.447 26.5153V26.5153ZM63.4733 30.7131C63.1682 30.7513 62.8525 30.7767 62.5422 30.8312C61.1937 31.0637 59.826 31.2272 58.5021 31.5668C57.2992 31.8756 56.6732 32.891 56.7504 34.0536C56.824 35.1616 57.5517 36.0008 58.6494 36.2406C61.7461 36.9218 64.3553 33.9664 63.4733 30.7131Z" fill="#4EE39D"/>
<path d="M190.641 24.8169C189.734 24.8169 188.973 24.7642 188.223 24.8278C186.185 24.9985 184.726 26.2701 184.247 28.3209C184.077 29.0474 184.011 29.8158 184.002 30.566C183.974 33.258 183.991 35.9518 183.99 38.6456V39.6937C182.231 39.6937 180.556 39.6937 178.806 39.6937C178.806 33.0164 178.806 26.35 178.806 19.5419C180.372 19.5419 181.936 19.5292 183.499 19.5692C183.613 19.5728 183.797 19.9579 183.813 20.1777C183.856 20.7753 183.828 21.3783 183.828 22.1413C184.056 21.9414 184.193 21.8579 184.282 21.738C185.766 19.6999 187.851 19.264 190.136 19.4075C190.313 19.4184 190.616 19.6981 190.62 19.858C190.655 21.4801 190.641 23.1076 190.641 24.8169V24.8169Z" fill="#4EE39D"/>
<path d="M37.8042 19.5764H42.828V22.0813C44.3833 19.8888 46.4875 19.2966 48.8863 19.3602C49.4352 19.3747 49.6631 19.5527 49.6508 20.154C49.6193 21.6871 49.6403 23.2238 49.6403 24.8441C49.2388 24.8241 48.9565 24.815 48.6724 24.7969C44.9655 24.5771 43.0296 26.4444 42.9998 30.3098C42.9788 33.0926 42.9946 35.8755 42.9946 38.6583V39.6991C41.2306 39.6991 39.5525 39.6991 37.8042 39.6991C37.8042 33.0272 37.8042 26.3608 37.8042 19.5764V19.5764Z" fill="#4EE39D"/>
<path d="M23.4321 15.958C23.4321 14.1815 23.4321 12.405 23.4321 10.5795H35.6488V15.9271C31.5579 15.9271 27.4792 15.9271 23.4023 15.9271L23.4321 15.958Z" fill="#4EE39D"/>
<path d="M18 39.6846C18 35.9336 18 32.2534 18 28.5061H23.3394V39.6846C21.5999 39.6846 19.8394 39.6846 18 39.6846Z" fill="#4EE39D"/>
<path d="M23.4795 28.3645C23.4795 26.5952 23.4795 24.9731 23.4795 23.2657H34.3337C34.3337 24.8169 34.3477 26.3736 34.3109 27.9303C34.3074 28.0793 33.9812 28.3445 33.8041 28.3463C30.3936 28.3717 26.983 28.3645 23.4795 28.3645V28.3645Z" fill="#4EE39D"/>
<path d="M23.4009 15.9271V23.0421C21.5544 23.0421 19.8167 23.0421 18.0176 23.0421C18.0176 20.708 18.0176 18.3956 18.0176 15.958H23.4324L23.4009 15.9271Z" fill="#4EE39D"/>
</svg>
