<svg width="230" height="50" viewBox="0 0 230 50" fill="none" xmlns="http://www.w3.org/2000/svg">
<path d="M14.7974 33.4705C14.5847 33.4705 14.3934 33.396 14.2233 33.247C14.0744 33.0767 14 32.8851 14 32.6722V11.916C14 11.6818 14.0744 11.4902 14.2233 11.3412C14.3934 11.1922 14.5847 11.1176 14.7974 11.1176H23.4727C26.2582 11.1176 28.427 11.7563 29.9792 13.0336C31.5527 14.2896 32.3394 16.0779 32.3394 18.3983C32.3394 19.8885 31.9886 21.1552 31.2869 22.1983C30.5852 23.2414 29.6177 24.0397 28.3845 24.5932L32.7541 32.4487C32.8178 32.5764 32.8497 32.6935 32.8497 32.7999C32.8497 32.9702 32.7753 33.1299 32.6265 33.2789C32.4989 33.4067 32.3501 33.4705 32.1799 33.4705H27.938C27.3213 33.4705 26.8854 33.1831 26.6303 32.6083L22.9943 25.5832H19.741V32.6722C19.741 32.9064 19.656 33.098 19.4859 33.247C19.337 33.396 19.1457 33.4705 18.9118 33.4705H14.7974ZM23.4089 21.0487C24.387 21.0487 25.1312 20.8145 25.6415 20.3462C26.1519 19.8566 26.407 19.186 26.407 18.3344C26.407 17.4829 26.1519 16.8123 25.6415 16.3227C25.1525 15.8117 24.4083 15.5563 23.4089 15.5563H19.741V21.0487H23.4089Z" fill="#4EE39D"/>
<path d="M36.4668 14.4706C36.2329 14.4706 36.0415 14.3961 35.8927 14.247C35.7438 14.098 35.6694 13.9064 35.6694 13.6723V10.7983C35.6694 10.5641 35.7438 10.3725 35.8927 10.2235C36.0415 10.0745 36.2329 10 36.4668 10H40.2941C40.528 10 40.7194 10.0745 40.8682 10.2235C41.0171 10.3725 41.0915 10.5641 41.0915 10.7983V13.6723C41.0915 13.9064 41.0171 14.098 40.8682 14.247C40.7194 14.3961 40.528 14.4706 40.2941 14.4706H36.4668ZM36.4987 33.4705C36.2648 33.4705 36.0734 33.396 35.9246 33.247C35.7757 33.098 35.7013 32.9064 35.7013 32.6722V17.6638C35.7013 17.4297 35.7757 17.2381 35.9246 17.0891C36.0734 16.94 36.2648 16.8655 36.4987 16.8655H40.2623C40.4961 16.8655 40.6875 16.94 40.8364 17.0891C40.9852 17.2381 41.0596 17.4297 41.0596 17.6638V32.6722C41.0596 32.8851 40.9852 33.0767 40.8364 33.247C40.6875 33.396 40.4961 33.4705 40.2623 33.4705H36.4987Z" fill="#4EE39D"/>
<path d="M54.9701 33.7899C52.8438 33.7899 51.1959 33.0767 50.0264 31.6504V32.6722C50.0264 32.8851 49.952 33.0767 49.8032 33.247C49.6543 33.396 49.463 33.4705 49.2291 33.4705H45.625C45.4124 33.4705 45.221 33.396 45.0509 33.247C44.902 33.0767 44.8276 32.8851 44.8276 32.6722V11.5966C44.8276 11.3625 44.902 11.1709 45.0509 11.0218C45.221 10.8728 45.4124 10.7983 45.625 10.7983H49.5161C49.75 10.7983 49.9414 10.8728 50.0902 11.0218C50.2391 11.1709 50.3135 11.3625 50.3135 11.5966V18.4302C51.5042 17.1742 53.0564 16.5462 54.9701 16.5462C57.0326 16.5462 58.6593 17.2168 59.85 18.558C61.0407 19.8991 61.6786 21.7193 61.7637 24.0184C61.7849 24.2952 61.7956 24.6784 61.7956 25.168C61.7956 25.6364 61.7849 26.0089 61.7637 26.2857C61.6574 28.67 61.0195 30.5221 59.85 31.842C58.6805 33.1406 57.0539 33.7899 54.9701 33.7899ZM53.2478 29.5109C54.2472 29.5109 54.9595 29.2128 55.3847 28.6168C55.8313 28.0207 56.0864 27.2011 56.1502 26.1579C56.1927 25.7322 56.214 25.4022 56.214 25.168C56.214 24.9339 56.1927 24.6039 56.1502 24.1781C56.0864 23.135 55.8313 22.3154 55.3847 21.7193C54.9595 21.1232 54.2472 20.8252 53.2478 20.8252C52.3122 20.8252 51.5999 21.1126 51.1109 21.6874C50.6218 22.2622 50.356 22.986 50.3135 23.8588L50.2816 25.0403L50.3135 26.2537C50.3773 27.2117 50.6324 27.9994 51.079 28.6168C51.5468 29.2128 52.2697 29.5109 53.2478 29.5109Z" fill="#4EE39D"/>
<path d="M75.0912 33.7899C72.9648 33.7899 71.317 33.0767 70.1475 31.6504V32.6722C70.1475 32.8851 70.0731 33.0767 69.9242 33.247C69.7754 33.396 69.584 33.4705 69.3501 33.4705H65.746C65.5334 33.4705 65.342 33.396 65.1719 33.247C65.0231 33.0767 64.9487 32.8851 64.9487 32.6722V11.5966C64.9487 11.3625 65.0231 11.1709 65.1719 11.0218C65.342 10.8728 65.5334 10.7983 65.746 10.7983H69.6372C69.8711 10.7983 70.0624 10.8728 70.2113 11.0218C70.3601 11.1709 70.4345 11.3625 70.4345 11.5966V18.4302C71.6253 17.1742 73.1775 16.5462 75.0912 16.5462C77.1537 16.5462 78.7803 17.2168 79.971 18.558C81.1618 19.8991 81.7997 21.7193 81.8847 24.0184C81.906 24.2952 81.9166 24.6784 81.9166 25.168C81.9166 25.6364 81.906 26.0089 81.8847 26.2857C81.7784 28.67 81.1405 30.5221 79.971 31.842C78.8016 33.1406 77.1749 33.7899 75.0912 33.7899V33.7899ZM73.3688 29.5109C74.3682 29.5109 75.0805 29.2128 75.5058 28.6168C75.9523 28.0207 76.2075 27.2011 76.2713 26.1579C76.3138 25.7322 76.335 25.4022 76.335 25.168C76.335 24.9339 76.3138 24.6039 76.2713 24.1781C76.2075 23.135 75.9523 22.3154 75.5058 21.7193C75.0805 21.1232 74.3682 20.8252 73.3688 20.8252C72.4333 20.8252 71.7209 21.1126 71.2319 21.6874C70.7428 22.2622 70.4771 22.986 70.4345 23.8588L70.4026 25.0403L70.4345 26.2537C70.4983 27.2117 70.7535 27.9994 71.2 28.6168C71.6678 29.2128 72.3907 29.5109 73.3688 29.5109V29.5109Z" fill="#4EE39D"/>
<path d="M85.835 14.4706C85.6011 14.4706 85.4097 14.3961 85.2609 14.247C85.112 14.098 85.0376 13.9064 85.0376 13.6723V10.7983C85.0376 10.5641 85.112 10.3725 85.2609 10.2235C85.4097 10.0745 85.6011 10 85.835 10H89.6623C89.8962 10 90.0876 10.0745 90.2364 10.2235C90.3853 10.3725 90.4597 10.5641 90.4597 10.7983V13.6723C90.4597 13.9064 90.3853 14.098 90.2364 14.247C90.0876 14.3961 89.8962 14.4706 89.6623 14.4706H85.835ZM85.8669 33.4705C85.633 33.4705 85.4416 33.396 85.2928 33.247C85.1439 33.098 85.0695 32.9064 85.0695 32.6722V17.6638C85.0695 17.4297 85.1439 17.2381 85.2928 17.0891C85.4416 16.94 85.633 16.8655 85.8669 16.8655H89.6304C89.8643 16.8655 90.0557 16.94 90.2045 17.0891C90.3534 17.2381 90.4278 17.4297 90.4278 17.6638V32.6722C90.4278 32.8851 90.3534 33.0767 90.2045 33.247C90.0557 33.396 89.8643 33.4705 89.6304 33.4705H85.8669Z" fill="#4EE39D"/>
<path d="M102.68 33.4705C98.2781 33.4705 96.0774 31.3736 96.0774 27.1798V21.0487H93.5896C93.3557 21.0487 93.1537 20.9742 92.9836 20.8252C92.8348 20.6762 92.7603 20.4846 92.7603 20.2504V17.6638C92.7603 17.4297 92.8348 17.2381 92.9836 17.0891C93.1537 16.94 93.3557 16.8655 93.5896 16.8655H96.0774V11.5966C96.0774 11.3625 96.1518 11.1709 96.3006 11.0218C96.4708 10.8728 96.6621 10.7983 96.8747 10.7983H100.575C100.808 10.7983 101 10.8728 101.149 11.0218C101.297 11.1709 101.372 11.3625 101.372 11.5966V16.8655H105.359C105.593 16.8655 105.784 16.94 105.933 17.0891C106.103 17.2381 106.188 17.4297 106.188 17.6638V20.2504C106.188 20.4846 106.103 20.6762 105.933 20.8252C105.784 20.9742 105.593 21.0487 105.359 21.0487H101.372V26.7327C101.372 28.3081 101.978 29.0957 103.19 29.0957H105.646C105.88 29.0957 106.071 29.1703 106.22 29.3193C106.369 29.4683 106.443 29.6599 106.443 29.8941V32.6722C106.443 32.8851 106.369 33.0767 106.22 33.247C106.071 33.396 105.88 33.4705 105.646 33.4705H102.68Z" fill="#4EE39D"/>
<path d="M125.832 33.7899C122.983 33.7899 120.814 33.0235 119.326 31.4907C117.859 29.9579 117.072 27.8397 116.966 25.1361C116.944 24.5613 116.934 23.6246 116.934 22.326C116.934 21.0061 116.944 20.0482 116.966 19.4521C117.072 16.7697 117.869 14.6622 119.358 13.1294C120.846 11.5753 123.004 10.7983 125.832 10.7983C127.725 10.7983 129.33 11.1389 130.648 11.8202C131.967 12.4801 132.966 13.3529 133.647 14.4386C134.327 15.5244 134.699 16.6846 134.763 17.9193V17.9832C134.763 18.1535 134.688 18.3025 134.54 18.4302C134.412 18.5367 134.263 18.5899 134.093 18.5899H132.339C131.914 18.5899 131.648 18.3451 131.541 17.8554C131.18 16.2588 130.531 15.1412 129.596 14.5025C128.66 13.8426 127.406 13.5126 125.832 13.5126C122.175 13.5126 120.283 15.5456 120.155 19.6117C120.134 20.1865 120.123 21.07 120.123 22.2622C120.123 23.4543 120.134 24.3591 120.155 24.9764C120.283 29.0425 122.175 31.0756 125.832 31.0756C127.406 31.0756 128.66 30.7562 129.596 30.1176C130.553 29.4577 131.201 28.3294 131.541 26.7327C131.605 26.456 131.701 26.2644 131.829 26.1579C131.956 26.0515 132.126 25.9983 132.339 25.9983H134.093C134.284 25.9983 134.444 26.0621 134.571 26.1899C134.72 26.2963 134.784 26.4453 134.763 26.6369C134.699 27.8929 134.327 29.0638 133.647 30.1495C132.966 31.2352 131.967 32.1187 130.648 32.7999C129.33 33.4599 127.725 33.7899 125.832 33.7899V33.7899Z" fill="#4EE39D"/>
<path d="M143.247 33.7899C142.205 33.7899 141.238 33.577 140.345 33.1512C139.452 32.7254 138.74 32.1506 138.208 31.4268C137.698 30.6817 137.442 29.8621 137.442 28.968C137.442 27.563 138.017 26.4134 139.165 25.5193C140.334 24.6039 141.908 24.0078 143.885 23.7311L148.638 23.0605V22.1344C148.638 19.963 147.394 18.8773 144.906 18.8773C143.97 18.8773 143.205 19.0795 142.609 19.484C142.014 19.8672 141.568 20.3249 141.27 20.8571C141.206 21.0487 141.121 21.1871 141.015 21.2722C140.93 21.3574 140.802 21.4 140.632 21.4H139.26C139.069 21.4 138.899 21.3361 138.75 21.2084C138.623 21.0594 138.559 20.889 138.559 20.6975C138.58 20.1865 138.814 19.6117 139.26 18.9731C139.728 18.3131 140.441 17.749 141.397 17.2807C142.354 16.791 143.534 16.5462 144.938 16.5462C147.319 16.5462 149.031 17.1103 150.073 18.2386C151.115 19.3456 151.636 20.7294 151.636 22.3899V32.7361C151.636 32.949 151.561 33.1299 151.412 33.2789C151.285 33.4067 151.115 33.4705 150.902 33.4705H149.435C149.222 33.4705 149.042 33.4067 148.893 33.2789C148.765 33.1299 148.701 32.949 148.701 32.7361V31.363C148.234 32.0442 147.553 32.619 146.66 33.0873C145.767 33.5557 144.629 33.7899 143.247 33.7899V33.7899ZM143.917 31.3949C145.299 31.3949 146.426 30.9478 147.298 30.0537C148.191 29.1383 148.638 27.8291 148.638 26.126V25.2319L144.938 25.7747C143.428 25.9876 142.29 26.3495 141.525 26.8605C140.76 27.3501 140.377 27.9781 140.377 28.7445C140.377 29.596 140.728 30.256 141.429 30.7243C142.131 31.1714 142.96 31.3949 143.917 31.3949V31.3949Z" fill="#4EE39D"/>
<path d="M156.986 39.5377C156.774 39.5377 156.593 39.4632 156.444 39.3142C156.316 39.1865 156.253 39.0162 156.253 38.8033V17.6C156.253 17.3871 156.316 17.2168 156.444 17.0891C156.593 16.94 156.774 16.8655 156.986 16.8655H158.453C158.666 16.8655 158.836 16.94 158.964 17.0891C159.112 17.2168 159.187 17.3871 159.187 17.6V19.005C160.378 17.3658 162.121 16.5462 164.418 16.5462C166.65 16.5462 168.319 17.2487 169.425 18.6538C170.552 20.0588 171.158 21.8683 171.243 24.0823C171.264 24.3165 171.275 24.6784 171.275 25.168C171.275 25.6577 171.264 26.0196 171.243 26.2537C171.158 28.4464 170.552 30.256 169.425 31.6823C168.298 33.0873 166.629 33.7899 164.418 33.7899C162.206 33.7899 160.484 32.9915 159.251 31.3949V38.8033C159.251 39.0162 159.187 39.1865 159.059 39.3142C158.932 39.4632 158.762 39.5377 158.549 39.5377H156.986ZM163.748 31.2033C165.258 31.2033 166.353 30.735 167.033 29.7983C167.735 28.8616 168.117 27.6268 168.181 26.0941C168.202 25.8812 168.213 25.5725 168.213 25.168C168.213 21.1445 166.725 19.1327 163.748 19.1327C162.281 19.1327 161.175 19.6224 160.431 20.6017C159.708 21.5596 159.315 22.7092 159.251 24.0504L159.219 25.2638L159.251 26.5092C159.293 27.7652 159.697 28.8616 160.463 29.7983C161.228 30.735 162.323 31.2033 163.748 31.2033V31.2033Z" fill="#4EE39D"/>
<path d="M175.699 13.7681C175.486 13.7681 175.306 13.7042 175.157 13.5765C175.029 13.4274 174.965 13.2465 174.965 13.0336V11.3092C174.965 11.0964 175.029 10.9154 175.157 10.7664C175.306 10.6174 175.486 10.5429 175.699 10.5429H177.708C177.921 10.5429 178.102 10.6174 178.25 10.7664C178.399 10.9154 178.474 11.0964 178.474 11.3092V13.0336C178.474 13.2465 178.399 13.4274 178.25 13.5765C178.102 13.7042 177.921 13.7681 177.708 13.7681H175.699ZM175.954 33.4705C175.741 33.4705 175.561 33.4067 175.412 33.2789C175.284 33.1299 175.22 32.949 175.22 32.7361V17.6C175.22 17.3871 175.284 17.2168 175.412 17.0891C175.561 16.94 175.741 16.8655 175.954 16.8655H177.485C177.698 16.8655 177.868 16.94 177.995 17.0891C178.144 17.2168 178.219 17.3871 178.219 17.6V32.7361C178.219 32.949 178.144 33.1299 177.995 33.2789C177.868 33.4067 177.698 33.4705 177.485 33.4705H175.954Z" fill="#4EE39D"/>
<path d="M189.42 33.4705C186.06 33.4705 184.38 31.5971 184.38 27.8504V19.4201H181.892C181.68 19.4201 181.499 19.3563 181.35 19.2285C181.223 19.0795 181.159 18.8986 181.159 18.6857V17.6C181.159 17.3871 181.223 17.2168 181.35 17.0891C181.499 16.94 181.68 16.8655 181.892 16.8655H184.38V11.5328C184.38 11.3199 184.444 11.1496 184.572 11.0218C184.72 10.8728 184.901 10.7983 185.114 10.7983H186.613C186.825 10.7983 186.996 10.8728 187.123 11.0218C187.272 11.1496 187.346 11.3199 187.346 11.5328V16.8655H191.301C191.514 16.8655 191.684 16.94 191.812 17.0891C191.96 17.2168 192.035 17.3871 192.035 17.6V18.6857C192.035 18.8986 191.96 19.0795 191.812 19.2285C191.684 19.3563 191.514 19.4201 191.301 19.4201H187.346V27.6268C187.346 28.6913 187.527 29.5002 187.889 30.0537C188.25 30.5859 188.845 30.852 189.675 30.852H191.62C191.833 30.852 192.003 30.9266 192.131 31.0756C192.279 31.2033 192.354 31.3736 192.354 31.5865V32.7361C192.354 32.949 192.279 33.1299 192.131 33.2789C192.003 33.4067 191.833 33.4705 191.62 33.4705H189.42Z" fill="#4EE39D"/>
<path d="M200.029 33.7899C198.987 33.7899 198.019 33.577 197.126 33.1512C196.233 32.7254 195.521 32.1506 194.989 31.4268C194.479 30.6817 194.224 29.8621 194.224 28.968C194.224 27.563 194.798 26.4134 195.946 25.5193C197.115 24.6039 198.689 24.0078 200.666 23.7311L205.419 23.0605V22.1344C205.419 19.963 204.175 18.8773 201.687 18.8773C200.751 18.8773 199.986 19.0795 199.391 19.484C198.795 19.8672 198.349 20.3249 198.051 20.8571C197.987 21.0487 197.902 21.1871 197.796 21.2722C197.711 21.3574 197.583 21.4 197.413 21.4H196.042C195.85 21.4 195.68 21.3361 195.531 21.2084C195.404 21.0594 195.34 20.889 195.34 20.6975C195.361 20.1865 195.595 19.6117 196.042 18.9731C196.509 18.3131 197.222 17.749 198.179 17.2807C199.135 16.791 200.316 16.5462 201.719 16.5462C204.1 16.5462 205.812 17.1103 206.854 18.2386C207.896 19.3456 208.417 20.7294 208.417 22.3899V32.7361C208.417 32.949 208.342 33.1299 208.194 33.2789C208.066 33.4067 207.896 33.4705 207.683 33.4705H206.216C206.003 33.4705 205.823 33.4067 205.674 33.2789C205.546 33.1299 205.482 32.949 205.482 32.7361V31.363C205.015 32.0442 204.334 32.619 203.441 33.0873C202.548 33.5557 201.411 33.7899 200.029 33.7899V33.7899ZM200.698 31.3949C202.08 31.3949 203.207 30.9478 204.079 30.0537C204.972 29.1383 205.419 27.8291 205.419 26.126V25.2319L201.719 25.7747C200.209 25.9876 199.072 26.3495 198.306 26.8605C197.541 27.3501 197.158 27.9781 197.158 28.7445C197.158 29.596 197.509 30.256 198.211 30.7243C198.912 31.1714 199.741 31.3949 200.698 31.3949V31.3949Z" fill="#4EE39D"/>
<path d="M213.767 33.4705C213.555 33.4705 213.374 33.4067 213.225 33.2789C213.098 33.1299 213.034 32.949 213.034 32.7361V11.5328C213.034 11.3199 213.098 11.1496 213.225 11.0218C213.374 10.8728 213.555 10.7983 213.767 10.7983H215.266C215.479 10.7983 215.649 10.8728 215.777 11.0218C215.926 11.1496 216 11.3199 216 11.5328V32.7361C216 32.949 215.926 33.1299 215.777 33.2789C215.649 33.4067 215.479 33.4705 215.266 33.4705H213.767Z" fill="#4EE39D"/>
</svg>
