<svg fill="none" height="50" viewBox="0 0 230 50" width="230" xmlns="http://www.w3.org/2000/svg"><g fill="#9c9ca4"><path d="m54.1144 19.9202h-8.4386v1.1902h3.5772v9.6125h1.2842v-9.6125h3.5772z"/><path d="m55.6312 30.7229h1.2842v-5.0351h5.7786v5.0351h1.2842v-10.8027h-1.2842v4.5774h-5.7786v-4.5774h-1.2842z"/><path d="m66.6639 30.7229h1.2841v-4.852h1.6511l2.9352 4.852h1.5746l-3.0728-4.9741c1.6816-.2594 2.7059-1.2817 2.7059-2.8532 0-2.6702-2.2167-2.9754-4.3111-2.9754h-2.767zm1.2841-9.6125h1.804c1.2535 0 2.6141.2288 2.6141 1.7852 0 1.7851-1.8498 1.7851-3.2715 1.7851h-1.1466z"/><path d="m76.0095 30.7229h7.0781v-1.1901h-5.7939v-3.845h5.1519v-1.1902h-5.1519v-3.3872h5.5188v-1.1902h-6.803z"/><path d="m85.0716 30.7229h7.078v-1.1901h-5.7939v-3.845h5.1519v-1.1902h-5.1519v-3.3872h5.5188v-1.1902h-6.8029z"/><path d="m97.1348 30.7229h1.4523l1.116-2.6549h5.4119l1.101 2.6549h1.498l-4.602-10.8027h-1.208zm7.4912-3.845h-4.418l2.247-5.3098h.03z"/><path d="m109.152 30.7229h1.284v-4.852h1.651l2.936 4.852h1.574l-3.072-4.9741c1.681-.2594 2.705-1.2817 2.705-2.8532 0-2.6702-2.216-2.9754-4.311-2.9754h-2.767zm1.284-9.6125h1.804c1.254 0 2.615.2288 2.615 1.7852 0 1.7851-1.85 1.7851-3.272 1.7851h-1.147z"/><path d="m118.498 30.7229h1.284v-4.852h1.651l2.935 4.852h1.575l-3.073-4.9741c1.682-.2594 2.706-1.2817 2.706-2.8532 0-2.6702-2.217-2.9754-4.311-2.9754h-2.767zm1.284-9.6125h1.804c1.254 0 2.614.2288 2.614 1.7852 0 1.7851-1.85 1.7851-3.271 1.7851h-1.147z"/><path d="m132.873 30.9975c3.287 0 5.657-2.4107 5.657-5.6759s-2.37-5.676-5.657-5.676-5.656 2.4108-5.656 5.676 2.369 5.6759 5.656 5.6759zm0-1.1901c-2.538 0-4.28-1.9988-4.28-4.4858 0-2.4871 1.742-4.4859 4.28-4.4859s4.281 1.9988 4.281 4.4859c0 2.487-1.743 4.4858-4.281 4.4858z"/><path d="m142.504 30.7229h1.406l2.691-9.1548h.031l2.675 9.1548h1.391l3.18-10.8027h-1.345l-2.508 8.9717h-.03l-2.645-8.9717h-1.437l-2.66 8.9717h-.03l-2.462-8.9717h-1.421z"/><path d="m161.505 20.912c-.795-.9307-1.82-1.2664-3.027-1.2664-1.896 0-3.684 1.0375-3.684 3.1126 0 1.8005 1.161 2.4718 2.69 2.9753 1.926.6409 2.828.8697 2.828 2.1972 0 1.2359-1.253 1.8767-2.354 1.8767-.933 0-1.85-.412-2.308-1.2054l-1.101.9003c.734 1.0833 2.079 1.4952 3.333 1.4952 1.956 0 3.806-1.007 3.806-3.1584 0-2.1208-1.559-2.6701-3.241-3.2041-1.727-.5493-2.278-.9918-2.278-1.9836 0-1.2816 1.178-1.8157 2.309-1.8157.779 0 1.544.3052 1.972.9918z"/><path d="m176.761 21.3392c-.917-1.1901-2.354-1.6936-3.822-1.6936-3.21 0-5.503 2.5023-5.503 5.676 0 3.2804 2.4 5.6759 5.503 5.6759 1.728 0 3.134-.595 4.098-1.892l-.964-.8086c-.764.9765-1.819 1.5105-3.134 1.5105-2.43 0-4.127-1.9835-4.127-4.4858 0-2.365 1.712-4.4859 4.127-4.4859 1.04 0 2.064.4425 2.706 1.3122z"/><path d="m177.573 30.7229h1.452l1.116-2.6549h5.412l1.101 2.6549h1.498l-4.601-10.8027h-1.208zm7.491-3.845h-4.418l2.247-5.3098h.031z"/><path d="m189.591 30.7229h1.284v-4.852h2.171c1.528 0 3.546-.6256 3.546-2.9906 0-2.2582-1.804-2.9601-3.791-2.9601h-3.21zm1.284-9.6125h2.171c1.284 0 2.17.5798 2.17 1.7852 0 1.2053-.886 1.7851-2.17 1.7851h-2.171z"/><path d="m198.653 30.7229h1.284v-10.8027h-1.284z"/><path d="m209.885 19.9202h-8.438v1.1902h3.577v9.6125h1.284v-9.6125h3.577z"/><path d="m208.745 30.7229h1.453l1.116-2.6549h5.411l1.101 2.6549h1.498l-4.601-10.8027h-1.208zm7.491-3.845h-4.418l2.247-5.3098h.031z"/><path d="m220.763 30.7229h6.237v-1.1901h-4.953v-9.6126h-1.284z"/><path clip-rule="evenodd" d="m17.9857 6.06341c.362-.15712.7844-.01324.9747.33204l1.682 3.0522c.2034.36925.0685.83325-.3015 1.03635s-.8348.0684-1.0383-.3009l-.8897-1.61451-3.1227 8.08931c1.9399.8086 3.8717 1.8759 5.6969 3.2501.8813.6635 1.7362 1.3973 2.5539 2.2063l8.1943-8.1785h-1.6711c-.4222 0-.7645-.3416-.7645-.763s.3423-.7631.7645-.7631h3.5168c.4222 0 .7645.3417.7645.7631v3.3574c0 .4214-.3423.7631-.7645.7631s-.7645-.3417-.7645-.7631v-1.5152l-8.2226 8.2067c1.9667 2.1996 3.6699 4.8869 4.9409 8.139l7.6641-3.0328-1.5755-.5469c-.3988-.1384-.6096-.5733-.4709-.9714.1387-.398.5744-.6084.9732-.47l3.5169 1.2209c.3877.1346.5997.5508.4802.9429l-1.0703 3.51c-.123.4031-.5501.6305-.954.5078-.404-.1227-.6318-.549-.5088-.9522l.6082-1.9947-8.1429 3.2222c1.0059 3.0051 1.6586 6.4559 1.8432 10.4049.0197.4209-.3063.7781-.728.7978-.4218.0196-.7797-.3057-.7994-.7267-.1766-3.7778-.794-7.0629-1.7393-9.9127l-23.66775 9.3656c-.28227.1117-.604.0461-.81975-.1671-.21574-.2133-.2846-.5338-.17544-.8166l9.34484-24.2078c-3.43581-1.2077-6.8158-1.5955-9.5111-1.4624-.42172.0208-.7805-.3036-.80135-.7245s.30411-.779.72583-.7998c2.88275-.1422 6.48142.2708 10.13662 1.562l3.0571-7.91947-1.842.79932c-.3872.16803-.8376-.00905-1.0059-.39553-.1684-.38647.009-.83598.3963-1.00401zm-3.2455 12.01939-8.04776 20.8476 15.76726-15.7369c-.7686-.7601-1.57-1.4473-2.3933-2.0672-1.7052-1.2837-3.5114-2.2835-5.3262-3.0435zm8.7705 6.22-15.67455 15.6443 20.27735-8.024c-1.194-3.0571-2.7828-5.5695-4.6028-7.6203z" fill-rule="evenodd"/></g></svg>