<svg fill="none" height="59" viewBox="0 0 212 59" width="212" xmlns="http://www.w3.org/2000/svg" xmlns:xlink="http://www.w3.org/1999/xlink"><linearGradient id="a" gradientUnits="userSpaceOnUse" x1="-14.2746" x2="48.072" y1="72.7637" y2="-12.9213"><stop offset=".0545332" stop-color="#00fed0"/><stop offset=".298003" stop-color="#00b3ec"/><stop offset=".610927" stop-color="#9756ff"/><stop offset=".99202" stop-color="#d834ff"/></linearGradient><path d="m14.7248 13.0126c0 .9759-.7911 1.767-1.767 1.767h-11.19083c-.975869 0-1.76697.7911-1.76697 1.7669v11.1909c0 .9758.791101 1.7669 1.76697 1.7669h11.19083c.9759 0 1.767.7911 1.767 1.767v11.1908c0 .9759-.7911 1.767-1.767 1.767h-11.19083c-.975869 0-1.76697.7911-1.76697 1.767v11.1908c0 .9759.791101 1.767 1.76697 1.767h11.19083c.9759 0 1.767-.7911 1.767-1.767v-11.1908c0-.9759.7911-1.767 1.767-1.767h11.1908c.9759 0 1.767-.7911 1.767-1.767v-11.1908c0-.9759-.7911-1.767-1.767-1.767h-11.1908c-.9759 0-1.767-.7911-1.767-1.7669v-11.1909c0-.9758.7911-1.7669 1.767-1.7669h18.5532c.9759 0 1.767-.7911 1.767-1.767v-11.19085c0-.97587-.7911-1.7669709-1.767-1.7669709h-18.5532c-.9759 0-1.767.7911009-1.767 1.7669709z" fill="url(#a)"/><g fill="#fff"><path d="m51.7693 27.011h10.269v-3.7688h-14.4362v21.0098h4.1672v-7.006c0-.5305.4301-.9606.9607-.9606l6.6312-.0001v-3.7688h-7.5919z"/><path d="m82.8522 44.2929h4.0219l.0014-12.2216h4.4926l-.0014-3.142h-4.4926l.0014-4.794h-4.0446l-.0014 3.8333c0 .5306-.4301.9607-.9607.9607h-2.3179l.0014 3.142h3.2786z"/><path d="m120.209 28.7447c-2.482 0-4.259 1.2256-5.485 3.0028v-2.8182h-4.044v15.3197h4.044v-4.9332c0-4.259 1.716-6.5571 5.455-6.5571h.827v-4.014z"/><path clip-rule="evenodd" d="m137.371 36.1159c-.153-4.6575-3.676-7.8135-7.752-7.8135-4.381 0-7.905 3.3093-7.905 8.1199s3.524 8.0892 7.844 8.0892c3.34 0 6.067-1.5321 7.415-4.7187l-3.609-.7762c-.088.1628-.422.6856-.865 1.0858-.952.8585-2.034.9466-2.941.9466-1.869 0-3.432-1.3482-3.83-3.5543h11.643zm-7.752-4.2897c1.624 0 3.095.8579 3.616 2.8189h-7.385c.491-1.8997 2.237-2.8189 3.769-2.8189z" fill-rule="evenodd"/><path d="m138.674 40.0073c.398 3.1866 3.493 4.5042 6.863 4.5042 3.984 0 6.711-1.5793 6.711-4.9498 0-2.0529-1.318-3.9055-4.014-4.4876l-3.646-.7967c-1.196-.2758-1.379-.7966-1.379-1.2869 0-.7048.459-1.5014 2.083-1.5014 1.685 0 2.758.8886 2.911 2.1142l3.861-.766c-.521-2.6658-3.034-4.5349-6.649-4.5349-3.861 0-6.251 2.1143-6.251 5.0558 0 2.2061 1.563 3.7688 4.32 4.351l3.126.6434c1.317.2758 1.685.8274 1.685 1.3789 0 .858-.889 1.532-2.39 1.532-1.593 0-2.941-.5208-3.156-2.0835z"/><path d="m176.339 28.9293c-1.278 0-4.038 0-4.038 0l-3.01 9.4374-2.798-8.4494c-.195-.5898-.747-.988-1.368-.988h-2.109l-3.132 9.4068-2.711-8.408c-.192-.5953-.746-.9988-1.371-.9988h-2.965l5.086 15.3205h2.612c.617 0 1.167-.3936 1.364-.9788.603-1.7836 1.203-3.5683 1.804-5.3529.3-.8923.6-1.7846.9-2.6768l3.003 9.0085h2.607c.619 0 1.169-.3957 1.366-.9829 1.062-3.1731 2.113-6.3497 3.165-9.5261l.002-.0051c.53-1.6023 1.061-3.2046 1.593-4.8064z"/><path d="m62.4935 28.9293v8.1083c0 4.1345 3.3517 7.4862 7.4862 7.4862s7.4862-3.3517 7.4862-7.4862v-8.1083h-4.035v8.1083c0 1.9061-1.5451 3.4512-3.4512 3.4512-1.906 0-3.4512-1.5451-3.4512-3.4512v-6.6673c0-.7958-.6452-1.441-1.4411-1.441z"/><path d="m93.5943 37.0376v-8.1083h2.5939c.7959 0 1.4411.4908 1.4411 1.2866v6.8217c0 1.9061 1.5452 3.4512 3.4517 3.4512 1.906 0 3.451-1.5451 3.451-3.4512v-8.1083h4.035v8.1083c0 4.1345-3.352 7.4862-7.486 7.4862-4.135 0-7.4867-3.3517-7.4867-7.4862z"/><path clip-rule="evenodd" d="m188.939 43.3892c-1.292.8698-2.848 1.3775-4.523 1.3775-4.477 0-8.107-3.6298-8.107-8.1075s3.63-8.1076 8.107-8.1076c1.675 0 3.231.5077 4.523 1.3776v-.9814h4.041v15.2813h-4.041zm-4.379-2.052c2.584 0 4.678-2.0945 4.678-4.678 0-2.5837-2.094-4.6781-4.678-4.6781-2.583 0-4.678 2.0944-4.678 4.6781 0 2.5835 2.095 4.678 4.678 4.678z" fill-rule="evenodd"/><path clip-rule="evenodd" d="m199.37 29.9311v-.982h-4.041v20.3117h2.033c1.109 0 2.008-.8988 2.008-2.0075v-3.8622c1.292.8699 2.848 1.3775 4.522 1.3775 4.478 0 8.108-3.6298 8.108-8.1075s-3.63-8.1076-8.108-8.1076c-1.674 0-3.23.5077-4.522 1.3776zm4.378 11.408c-2.583 0-4.678-2.0945-4.678-4.678 0-2.5837 2.095-4.6781 4.678-4.6781 2.584 0 4.678 2.0944 4.678 4.6781 0 2.5835-2.094 4.678-4.678 4.678z" fill-rule="evenodd"/></g></svg>