<svg width="230" height="50" viewBox="0 0 230 50" fill="none" xmlns="http://www.w3.org/2000/svg">
<path fill-rule="evenodd" clip-rule="evenodd" d="M35.5249 27.5764C38.1564 21.6814 40.8002 15.7914 43.4015 9.88383C43.6888 9.23148 44.0172 8.99183 44.7493 9.00021C48.0552 9.03985 51.3622 9.02973 54.6684 9.00693C55.2883 9.0027 55.6887 9.09225 55.9685 9.73887C60.5471 20.3206 65.155 30.8902 69.7514 41.4645C69.8026 41.5826 69.7879 41.728 69.8187 41.981C67.8621 41.981 65.9426 41.9399 64.0261 41.9991C63.1302 42.0267 63.0748 41.3697 62.8555 40.8647C59.2377 32.5298 55.6079 24.1997 52.066 15.8342C51.6025 14.7398 51.0557 14.3522 49.8985 14.4529C48.7254 14.5551 47.6269 14.2253 47.0105 15.8589C45.5156 19.8208 43.7273 23.6771 42.0572 27.576C39.8799 27.5761 37.7024 27.5763 35.5249 27.5764V27.5764Z" fill="#4EE39D"/>
<path fill-rule="evenodd" clip-rule="evenodd" d="M37.1829 33.3049C35.6222 33.3052 34.1522 33.3056 32.8958 33.3056C31.6146 36.1594 30.3325 39.0145 29 41.982C31.146 41.982 33.0474 41.9517 34.9467 41.9992C35.5767 42.0149 35.8834 41.8042 36.1098 41.2722C37.2416 38.6109 38.3979 35.9589 39.5461 33.3041C38.7536 33.3044 37.961 33.3047 37.1829 33.3049V33.3049Z" fill="#4EE39D"/>
<path fill-rule="evenodd" clip-rule="evenodd" d="M103.505 18.5346C104.775 15.6269 106.05 12.7217 107.304 9.80783C107.443 9.48606 107.601 9.36785 107.954 9.37199C109.549 9.39154 111.144 9.38655 112.738 9.3753C113.037 9.37321 113.23 9.41738 113.365 9.73632C115.574 14.9557 117.796 20.169 120.013 25.3848C120.038 25.443 120.031 25.5147 120.045 25.6395C119.102 25.6395 118.176 25.6192 117.252 25.6484C116.82 25.6621 116.793 25.338 116.687 25.0889C114.942 20.9778 113.192 16.869 111.483 12.7428C111.26 12.203 110.996 12.0118 110.438 12.0615C109.872 12.1119 109.342 11.9492 109.045 12.755C108.324 14.7091 107.462 16.6112 106.656 18.5343C105.606 18.5344 104.556 18.5345 103.505 18.5346V18.5346Z" fill="#4EE39D"/>
<path fill-rule="evenodd" clip-rule="evenodd" d="M152.898 18.5346C154.167 15.6269 155.442 12.7217 156.697 9.80783C156.835 9.48606 156.993 9.36785 157.347 9.37199C158.941 9.39154 160.536 9.38655 162.131 9.3753C162.43 9.37321 162.623 9.41738 162.758 9.73632C164.966 14.9557 167.188 20.169 169.405 25.3848C169.43 25.443 169.423 25.5147 169.438 25.6395C168.494 25.6395 167.568 25.6192 166.644 25.6484C166.212 25.6621 166.185 25.338 166.079 25.0889C164.334 20.9778 162.584 16.869 160.875 12.7428C160.652 12.203 160.388 12.0118 159.83 12.0615C159.264 12.1119 158.734 11.9492 158.437 12.755C157.716 14.7091 156.854 16.6112 156.048 18.5343C154.998 18.5344 153.948 18.5345 152.898 18.5346V18.5346Z" fill="#4EE39D"/>
<path fill-rule="evenodd" clip-rule="evenodd" d="M89.5277 18.1184C90.3921 18.1184 90.9905 18.0399 91.323 17.8829C91.6549 17.7259 91.8214 17.4381 91.8214 17.0196V12.4935C91.8214 12.0748 91.6549 11.7872 91.323 11.6302C90.9905 11.4732 90.3921 11.3947 89.5277 11.3947H84.675V18.1184H89.5277ZM84.675 25.5745H81.3511V9.22333H89.4948C90.9791 9.22333 92.1371 9.39782 92.968 9.74665C93.7989 10.0957 94.3973 10.6668 94.7633 11.4601C95.1287 12.2541 95.3114 13.3482 95.3114 14.7435C95.3114 16.6972 94.9009 18.0922 94.0816 18.9294C93.2617 19.7667 91.8989 20.1852 89.9932 20.1852H84.675V25.5745Z" fill="#4EE39D"/>
<path fill-rule="evenodd" clip-rule="evenodd" d="M130.268 17.7259H135.279C136.141 17.7259 136.739 17.6474 137.071 17.4904C137.402 17.3334 137.568 17.0458 137.568 16.6271V12.4935C137.568 12.0748 137.402 11.7872 137.071 11.6302C136.739 11.4732 136.141 11.3947 135.279 11.3947H130.268V17.7259ZM138.431 25.5745L134.98 19.7927H130.268V25.5745H126.95V9.22333H135.246C136.727 9.22333 137.883 9.39782 138.713 9.74665C139.543 10.0957 140.14 10.6668 140.505 11.4601C140.87 12.2541 141.053 13.3481 141.053 14.7435C141.053 16.0868 140.837 17.1372 140.406 17.8959C139.974 18.6547 139.272 19.1824 138.298 19.4787L142.048 25.5745H138.431Z" fill="#4EE39D"/>
<path fill-rule="evenodd" clip-rule="evenodd" d="M180.956 25.5745H177.632V9.22333H188.936L188.571 11.3948H180.956V16.7056H187.606V18.7724H180.956V25.5745Z" fill="#4EE39D"/>
<path fill-rule="evenodd" clip-rule="evenodd" d="M197.738 25.5745H201V9.22333H197.738V25.5745Z" fill="#4EE39D"/>
<path fill-rule="evenodd" clip-rule="evenodd" d="M102.197 21.2645C101.579 22.6792 100.961 24.0945 100.319 25.5656C101.353 25.5656 102.27 25.5506 103.185 25.5741C103.489 25.5819 103.637 25.4775 103.746 25.2138C104.291 23.8944 104.849 22.5798 105.402 21.2637C105.02 21.2639 104.638 21.264 104.263 21.2641C103.511 21.2643 102.802 21.2645 102.197 21.2645V21.2645Z" fill="#4EE39D"/>
<path fill-rule="evenodd" clip-rule="evenodd" d="M153.747 21.2641C152.99 21.2643 152.277 21.2645 151.668 21.2645C151.05 22.6792 150.43 24.0945 149.787 25.5657C150.82 25.5657 151.736 25.5507 152.65 25.5741C152.954 25.5819 153.101 25.4778 153.21 25.2149C153.757 23.8952 154.316 22.5802 154.87 21.2637C154.494 21.2639 154.117 21.264 153.747 21.2641Z" fill="#4EE39D"/>
<path fill-rule="evenodd" clip-rule="evenodd" d="M90.4556 39.5446V37.0974C90.4556 36.3176 90.6332 35.7505 90.9879 35.3964C91.3428 35.0421 91.9072 34.865 92.6813 34.865H93.9822C94.6417 34.865 95.1327 35.0028 95.4553 35.2782C95.7777 35.5537 95.9568 35.9957 95.9928 36.6038C96.0071 36.7899 95.9139 36.8828 95.7133 36.8828C95.5413 36.8828 95.448 36.7899 95.4337 36.6038C95.405 36.1674 95.2832 35.8616 95.0681 35.6861C94.8531 35.5108 94.4911 35.4231 93.9822 35.4231H92.6813C92.2655 35.4231 91.9376 35.4769 91.6975 35.5841C91.4573 35.6915 91.2836 35.865 91.1761 36.1047C91.0685 36.3445 91.0148 36.6754 91.0148 37.0974V39.5446C91.0148 39.967 91.0685 40.2978 91.1761 40.5374C91.2836 40.7772 91.4573 40.9506 91.6975 41.058C91.9376 41.1653 92.269 41.2191 92.6921 41.2191H93.9822C94.4911 41.2191 94.8531 41.1332 95.0681 40.9615C95.2832 40.7896 95.405 40.4821 95.4337 40.0385C95.448 39.8523 95.5413 39.7593 95.7133 39.7593C95.9139 39.7593 96.0071 39.8559 95.9928 40.0491C95.9568 40.6574 95.7777 41.0973 95.4553 41.3693C95.1327 41.6413 94.6417 41.7771 93.9822 41.7771H92.6921C91.9179 41.7771 91.3516 41.5984 90.9932 41.2404C90.6348 40.8827 90.4556 40.3174 90.4556 39.5446V39.5446Z" fill="#4EE39D"/>
<path fill-rule="evenodd" clip-rule="evenodd" d="M109.313 39.3514H112.341L110.827 35.7451L109.313 39.3514ZM113.824 41.5195C113.824 41.6126 113.763 41.6877 113.643 41.7448C113.6 41.7663 113.554 41.7771 113.504 41.7771C113.404 41.7771 113.333 41.7198 113.291 41.6054L112.576 39.9095H109.089L108.374 41.6054C108.324 41.7198 108.246 41.7771 108.139 41.7771C108.104 41.7771 108.058 41.7663 108.001 41.7448C107.887 41.7019 107.83 41.6233 107.83 41.5087C107.83 41.4516 107.837 41.4086 107.851 41.38L110.496 35.0796C110.553 34.9365 110.66 34.865 110.816 34.865H110.838C110.98 34.865 111.083 34.9365 111.147 35.0796L113.792 41.38C113.813 41.43 113.824 41.4766 113.824 41.5195V41.5195Z" fill="#4EE39D"/>
<path fill-rule="evenodd" clip-rule="evenodd" d="M129.884 36.7218C129.884 36.2711 129.782 35.942 129.579 35.7344C129.376 35.5269 129.047 35.4231 128.591 35.4231H126.367V38.3425H128.591C129.047 38.3425 129.376 38.2406 129.579 38.0366C129.782 37.8327 129.884 37.5018 129.884 37.0438V36.7218ZM129.969 35.3372C130.283 35.6522 130.44 36.1138 130.44 36.7218V37.0438C130.44 37.652 130.285 38.1136 129.975 38.4283C129.665 38.7434 129.203 38.9005 128.591 38.9005H126.367V41.498C126.367 41.6842 126.275 41.7771 126.089 41.7771C125.904 41.7771 125.812 41.6842 125.812 41.498V35.1441C125.812 34.958 125.904 34.865 126.089 34.865H128.591C129.196 34.865 129.656 35.0224 129.969 35.3372Z" fill="#4EE39D"/>
<path fill-rule="evenodd" clip-rule="evenodd" d="M142.575 41.7019C142.527 41.6519 142.503 41.5838 142.503 41.498V35.1441C142.503 35.0582 142.527 34.9903 142.575 34.9401C142.622 34.8902 142.687 34.865 142.769 34.865C142.851 34.865 142.915 34.8902 142.963 34.9401C143.011 34.9903 143.034 35.0582 143.034 35.1441V41.498C143.034 41.5838 143.011 41.6519 142.963 41.7019C142.915 41.7521 142.851 41.7771 142.769 41.7771C142.687 41.7771 142.622 41.7521 142.575 41.7019Z" fill="#4EE39D"/>
<path fill-rule="evenodd" clip-rule="evenodd" d="M157.82 41.6967C157.766 41.6431 157.74 41.5772 157.74 41.4985V35.4221H155.453C155.374 35.4221 155.308 35.3955 155.254 35.3419C155.2 35.2882 155.174 35.2223 155.174 35.1436C155.174 35.0579 155.2 34.9901 155.254 34.9399C155.308 34.8902 155.374 34.865 155.453 34.865H160.585C160.671 34.865 160.739 34.8902 160.789 34.9399C160.839 34.9901 160.864 35.0579 160.864 35.1436C160.864 35.2223 160.839 35.2882 160.789 35.3419C160.739 35.3955 160.671 35.4221 160.585 35.4221H158.298V41.4985C158.298 41.5772 158.273 41.6431 158.223 41.6967C158.173 41.7504 158.105 41.7771 158.019 41.7771C157.94 41.7771 157.874 41.7504 157.82 41.6967V41.6967Z" fill="#4EE39D"/>
<path fill-rule="evenodd" clip-rule="evenodd" d="M172.058 39.3514H175.087L173.573 35.7451L172.058 39.3514ZM176.569 41.5195C176.569 41.6126 176.509 41.6877 176.388 41.7448C176.345 41.7663 176.299 41.7771 176.249 41.7771C176.15 41.7771 176.079 41.7198 176.036 41.6054L175.321 39.9095H171.834L171.119 41.6054C171.07 41.7198 170.991 41.7771 170.885 41.7771C170.849 41.7771 170.803 41.7663 170.746 41.7448C170.632 41.7019 170.576 41.6233 170.576 41.5087C170.576 41.4516 170.583 41.4086 170.597 41.38L173.242 35.0796C173.299 34.9365 173.405 34.865 173.562 34.865H173.583C173.725 34.865 173.828 34.9365 173.892 35.0796L176.537 41.38C176.559 41.43 176.569 41.4766 176.569 41.5195V41.5195Z" fill="#4EE39D"/>
<path fill-rule="evenodd" clip-rule="evenodd" d="M188.633 41.498V35.1441C188.633 34.958 188.725 34.865 188.911 34.865C189.096 34.865 189.189 34.958 189.189 35.1441V41.2191H192.452C192.637 41.2191 192.73 41.312 192.73 41.498C192.73 41.6842 192.637 41.7771 192.452 41.7771H188.911C188.725 41.7771 188.633 41.6842 188.633 41.498Z" fill="#4EE39D"/>
</svg>
