<svg width="230" height="50" viewBox="0 0 230 50" fill="none" xmlns="http://www.w3.org/2000/svg">
<path d="M16.6094 42.464H25.1122V41.968H22.3842V29.6034H22.4551C22.5259 29.8396 22.6558 30.1585 22.8448 30.56C23.0337 30.9379 23.3054 31.3158 23.6596 31.6937C24.0139 32.048 24.4627 32.355 25.0059 32.6148C25.5728 32.8983 26.2577 33.04 27.0608 33.04C28.1 33.04 29.0802 32.8156 30.0014 32.3668C30.9461 31.9181 31.7728 31.3158 32.4814 30.56C33.1899 29.8042 33.745 28.9421 34.1465 27.9737C34.5716 26.9817 34.7842 25.9425 34.7842 24.856C34.7842 23.7931 34.5834 22.7775 34.1819 21.8091C33.7804 20.8408 33.2372 20.0023 32.5522 19.2937C31.8673 18.5615 31.076 17.9828 30.1785 17.5577C29.281 17.1089 28.3244 16.8846 27.3088 16.8846C26.0097 16.8846 24.9469 17.2152 24.1202 17.8766C23.3172 18.5143 22.7385 19.3291 22.3842 20.3211H22.3134V17.3451H16.6094V17.8411H19.3374V41.968H16.6094V42.464ZM31.2414 24.4308C31.2414 25.659 31.2059 26.7809 31.1351 27.7966C31.0642 28.7886 30.8871 29.6388 30.6036 30.3474C30.3202 31.056 29.8951 31.5992 29.3282 31.9771C28.7614 32.355 27.9937 32.544 27.0254 32.544C26.0334 32.544 25.2303 32.3314 24.6162 31.9063C24.0257 31.4811 23.5652 30.9379 23.2345 30.2766C22.9038 29.5916 22.6795 28.8358 22.5614 28.0091C22.4433 27.1825 22.3842 26.3794 22.3842 25.6C22.3842 24.6788 22.396 23.8876 22.4196 23.2263C22.4669 22.5413 22.5377 21.939 22.6322 21.4194C22.7267 20.8998 22.8448 20.451 22.9865 20.0731C23.1518 19.6952 23.3644 19.3409 23.6242 19.0103C23.9785 18.5379 24.4391 18.1482 25.0059 17.8411C25.5728 17.5341 26.2932 17.3806 27.1671 17.3806C27.9937 17.3806 28.6669 17.5459 29.1865 17.8766C29.7297 18.2072 30.1431 18.6796 30.4265 19.2937C30.7335 19.9078 30.9461 20.6518 31.0642 21.5257C31.1823 22.376 31.2414 23.3444 31.2414 24.4308V24.4308Z" fill="#4EE39D"/>
<path d="M38.8506 32.544H47.3534V32.048H44.6254V7H38.8506V7.496H41.5786V32.048H38.8506V32.544Z" fill="#4EE39D"/>
<path d="M66.233 31.7646C65.9732 31.9535 65.7016 32.0952 65.4182 32.1897C65.1347 32.2842 64.8631 32.3314 64.6033 32.3314C64.2018 32.3314 63.8947 32.2133 63.6822 31.9771C63.4696 31.7409 63.3633 31.2804 63.3633 30.5954V21.7737C63.3633 21.136 63.2688 20.5337 63.0799 19.9668C62.8909 19.3764 62.5721 18.8568 62.1233 18.408C61.6745 17.9356 61.0841 17.5695 60.3519 17.3097C59.6197 17.0263 58.7104 16.8846 57.6239 16.8846C56.7264 16.8846 55.9233 16.9908 55.2147 17.2034C54.5298 17.416 53.9511 17.7112 53.4787 18.0891C53.03 18.4434 52.6875 18.8568 52.4513 19.3291C52.2151 19.8015 52.097 20.2975 52.097 20.8171C52.097 21.2659 52.1915 21.632 52.3805 21.9154C52.5694 22.1988 53.0536 22.3406 53.833 22.3406C54.2818 22.3406 54.6243 22.2343 54.8605 22.0217C55.0967 21.7855 55.2147 21.5021 55.2147 21.1714C55.2147 20.9825 55.1793 20.699 55.1085 20.3211C55.0376 19.9196 55.0022 19.5181 55.0022 19.1166C55.0022 18.5025 55.2502 18.0655 55.7462 17.8057C56.2658 17.5223 56.9153 17.3806 57.6947 17.3806C58.2852 17.3806 58.7576 17.4632 59.1119 17.6286C59.4662 17.7939 59.7378 18.0419 59.9267 18.3726C60.1157 18.6796 60.2456 19.0575 60.3165 19.5063C60.3873 19.955 60.4227 20.4628 60.4227 21.0297C60.4227 21.7383 60.3637 22.3051 60.2456 22.7303C60.1511 23.1318 59.9622 23.4743 59.6787 23.7577C59.3953 24.0175 58.9938 24.2419 58.4742 24.4308C57.9782 24.6198 57.3405 24.8442 56.561 25.104C55.8997 25.3166 55.2384 25.5173 54.577 25.7063C53.9393 25.8952 53.3488 26.1432 52.8056 26.4503C52.286 26.7337 51.8608 27.1234 51.5302 27.6194C51.1995 28.1154 51.0342 28.7767 51.0342 29.6034C51.0342 29.9577 51.0814 30.3474 51.1759 30.7726C51.294 31.1741 51.5184 31.5402 51.849 31.8708C52.1797 32.2015 52.6403 32.4731 53.2307 32.6857C53.8212 32.9219 54.6125 33.04 55.6045 33.04C56.4784 33.04 57.1987 32.9337 57.7656 32.7211C58.3325 32.5322 58.7812 32.296 59.1119 32.0126C59.4662 31.7055 59.726 31.3985 59.8913 31.0914C60.0566 30.7607 60.1866 30.4891 60.281 30.2766H60.3519C60.5408 31.1505 60.8833 31.8354 61.3793 32.3314C61.8989 32.8038 62.7256 33.04 63.8593 33.04C64.4734 33.04 64.993 32.9455 65.4182 32.7566C65.8433 32.5912 66.2094 32.3905 66.5165 32.1543L66.233 31.7646ZM60.3165 27.4068C60.3165 27.8792 60.2692 28.4107 60.1747 29.0011C60.1039 29.568 59.9386 30.0994 59.6787 30.5954C59.4426 31.0914 59.0765 31.5047 58.5805 31.8354C58.1081 32.1661 57.4822 32.3314 56.7027 32.3314C56.1595 32.3314 55.7107 32.2369 55.3565 32.048C55.0258 31.859 54.766 31.6228 54.577 31.3394C54.3881 31.0324 54.2582 30.6899 54.1873 30.312C54.1165 29.9341 54.081 29.568 54.081 29.2137C54.081 28.387 54.2818 27.7021 54.6833 27.1588C55.0848 26.592 55.6635 26.155 56.4193 25.848L59.0765 24.7851C59.8086 24.4781 60.1984 24.171 60.2456 23.864H60.3165V27.4068Z" fill="#4EE39D"/>
<path d="M83.1481 28.5406C83.0536 28.824 82.9119 29.1901 82.723 29.6388C82.534 30.0876 82.2388 30.5364 81.8373 30.9851C81.4594 31.4103 80.9279 31.7764 80.243 32.0834C79.5816 32.3905 78.7314 32.544 77.6921 32.544C76.7237 32.544 75.9325 32.355 75.3184 31.9771C74.7279 31.5756 74.2556 31.0442 73.9013 30.3828C73.5706 29.6979 73.3344 28.9066 73.1927 28.0091C73.0746 27.1116 73.0156 26.155 73.0156 25.1394C73.0156 23.3444 73.1573 21.9272 73.4407 20.888C73.7477 19.8488 74.1257 19.0693 74.5744 18.5497C75.0468 18.0301 75.5546 17.7112 76.0978 17.5931C76.6647 17.4514 77.2079 17.3806 77.7276 17.3806C78.4361 17.3806 79.062 17.5341 79.6053 17.8411C80.1485 18.1246 80.4201 18.5379 80.4201 19.0811C80.4201 19.3882 80.3375 19.7779 80.1721 20.2503C80.0068 20.7227 79.9241 21.1242 79.9241 21.4548C79.9241 21.88 80.1013 22.187 80.4556 22.376C80.8335 22.5413 81.2232 22.624 81.6247 22.624C82.2152 22.624 82.6639 22.4705 82.971 22.1634C83.3016 21.8328 83.467 21.4194 83.467 20.9234C83.467 20.1912 83.278 19.5771 82.9001 19.0811C82.5458 18.5615 82.0853 18.1482 81.5184 17.8411C80.9752 17.5105 80.3611 17.2743 79.6761 17.1326C79.0148 16.9672 78.3653 16.8846 77.7276 16.8846C76.5938 16.8846 75.5192 17.0971 74.5036 17.5223C73.5116 17.9238 72.6377 18.4907 71.8818 19.2228C71.1497 19.955 70.5592 20.8171 70.1104 21.8091C69.6853 22.8011 69.4727 23.8758 69.4727 25.0331C69.4727 26.5211 69.7207 27.7729 70.2167 28.7886C70.7363 29.8042 71.3977 30.6308 72.2007 31.2686C73.0038 31.8826 73.8895 32.3314 74.8578 32.6148C75.8262 32.8983 76.7592 33.04 77.6567 33.04C78.8376 33.04 79.7942 32.8628 80.5264 32.5086C81.2822 32.1306 81.8727 31.7055 82.2978 31.2331C82.7466 30.7371 83.0655 30.2529 83.2544 29.7806C83.467 29.2846 83.6087 28.9066 83.6796 28.6468L83.1481 28.5406Z" fill="#4EE39D"/>
<path d="M102.26 23.7577C102.26 22.4587 102.036 21.3722 101.587 20.4983C101.162 19.6244 100.618 18.9276 99.9569 18.408C99.3192 17.8648 98.6224 17.475 97.8666 17.2388C97.1108 17.0027 96.4023 16.8846 95.7409 16.8846C94.6308 16.8846 93.5916 17.1208 92.6232 17.5931C91.6548 18.0419 90.8045 18.6442 90.0724 19.4C89.3638 20.1558 88.7969 21.0297 88.3718 22.0217C87.9703 22.9901 87.7695 23.9939 87.7695 25.0331C87.7695 26.2377 87.9703 27.336 88.3718 28.328C88.7733 29.2964 89.3402 30.1348 90.0724 30.8434C90.8045 31.552 91.6666 32.0952 92.6586 32.4731C93.6743 32.851 94.7725 33.04 95.9535 33.04C97.1344 33.04 98.091 32.8628 98.8232 32.5086C99.579 32.1306 100.17 31.7055 100.595 31.2331C101.044 30.7371 101.362 30.2529 101.551 29.7806C101.764 29.2846 101.906 28.9066 101.977 28.6468L101.445 28.5406C101.351 28.824 101.209 29.1901 101.02 29.6388C100.831 30.0876 100.536 30.5364 100.134 30.9851C99.7562 31.4103 99.2247 31.7764 98.5398 32.0834C97.8784 32.3905 97.0282 32.544 95.9889 32.544C94.9497 32.544 94.1112 32.3196 93.4735 31.8708C92.8594 31.4221 92.387 30.8552 92.0564 30.1703C91.7493 29.4853 91.5485 28.7177 91.4541 27.8674C91.3596 27.0171 91.3124 26.2023 91.3124 25.4228C91.3124 25.0449 91.3124 24.7379 91.3124 24.5017C91.336 24.2419 91.3478 23.9939 91.3478 23.7577H102.26ZM91.3832 23.2617C91.4304 22.4823 91.5249 21.7383 91.6666 21.0297C91.832 20.3211 92.0682 19.6952 92.3752 19.152C92.6823 18.6088 93.0956 18.1836 93.6152 17.8766C94.1348 17.5459 94.7962 17.3806 95.5992 17.3806C96.048 17.3806 96.4613 17.4514 96.8392 17.5931C97.2407 17.7112 97.5714 17.9238 97.8312 18.2308C98.1146 18.5379 98.3272 18.9512 98.4689 19.4708C98.6343 19.9905 98.7169 20.6518 98.7169 21.4548V22.3406C98.7169 22.624 98.6933 22.931 98.6461 23.2617H91.3832Z" fill="#4EE39D"/>
<path d="M106.015 32.544H114.518V32.048H111.79V24.0411C111.79 23.0964 111.932 22.2225 112.215 21.4194C112.522 20.6164 112.936 19.9196 113.455 19.3291C113.975 18.7387 114.577 18.2781 115.262 17.9474C115.947 17.6168 116.668 17.4514 117.423 17.4514C118.345 17.4514 119.018 17.7467 119.443 18.3371C119.892 18.9276 120.116 19.6834 120.116 20.6046V32.048H117.388V32.544H125.891V32.048H123.163V21.7028C123.163 20.0495 122.667 18.8449 121.675 18.0891C120.706 17.3333 119.443 16.9554 117.884 16.9554C116.916 16.9554 116.077 17.1089 115.369 17.416C114.684 17.6994 114.093 18.0537 113.597 18.4788C113.125 18.8804 112.747 19.3173 112.463 19.7897C112.18 20.2385 111.979 20.6164 111.861 20.9234H111.79V7H106.015V7.496H108.743V32.048H106.015V32.544Z" fill="#4EE39D"/>
<path d="M129.622 24.9623C129.622 26.0724 129.859 27.1234 130.331 28.1154C130.803 29.0838 131.417 29.9341 132.173 30.6663C132.953 31.3985 133.838 31.9771 134.83 32.4023C135.822 32.8274 136.838 33.04 137.877 33.04C138.917 33.04 139.932 32.8274 140.924 32.4023C141.916 31.9771 142.79 31.3985 143.546 30.6663C144.325 29.9341 144.951 29.0838 145.424 28.1154C145.896 27.1234 146.132 26.0724 146.132 24.9623C146.132 23.8049 145.872 22.7303 145.353 21.7383C144.857 20.7463 144.207 19.896 143.404 19.1874C142.625 18.4552 141.739 17.8884 140.747 17.4868C139.779 17.0853 138.822 16.8846 137.877 16.8846C136.933 16.8846 135.964 17.0853 134.972 17.4868C134.004 17.8884 133.118 18.4552 132.315 19.1874C131.536 19.896 130.886 20.7463 130.366 21.7383C129.87 22.7303 129.622 23.8049 129.622 24.9623V24.9623ZM133.165 24.9623C133.165 23.5451 133.26 22.3642 133.449 21.4194C133.638 20.451 133.921 19.6716 134.299 19.0811C134.701 18.467 135.197 18.0301 135.787 17.7703C136.377 17.5105 137.074 17.3806 137.877 17.3806C138.68 17.3806 139.377 17.5105 139.968 17.7703C140.558 18.0301 141.042 18.467 141.42 19.0811C141.822 19.6716 142.117 20.451 142.306 21.4194C142.495 22.3642 142.589 23.5451 142.589 24.9623C142.589 26.6392 142.459 27.9737 142.2 28.9657C141.94 29.9577 141.597 30.7253 141.172 31.2686C140.747 31.7882 140.251 32.1306 139.684 32.296C139.117 32.4613 138.515 32.544 137.877 32.544C137.24 32.544 136.637 32.4613 136.07 32.296C135.504 32.1306 135.008 31.7882 134.582 31.2686C134.157 30.7253 133.815 29.9577 133.555 28.9657C133.295 27.9737 133.165 26.6392 133.165 24.9623V24.9623Z" fill="#4EE39D"/>
<path d="M149.947 32.544H158.449V32.048H155.721V7H149.947V7.496H152.675V32.048H149.947V32.544Z" fill="#4EE39D"/>
<path d="M172.192 7.496H174.92V20.1794H174.849C174.519 19.2583 173.952 18.4788 173.149 17.8411C172.346 17.2034 171.295 16.8846 169.995 16.8846C168.98 16.8846 168.023 17.1089 167.126 17.5577C166.228 17.9828 165.437 18.5615 164.752 19.2937C164.067 20.0023 163.524 20.8408 163.122 21.8091C162.721 22.7775 162.52 23.7931 162.52 24.856C162.52 25.9425 162.721 26.9817 163.122 27.9737C163.547 28.9421 164.114 29.8042 164.823 30.56C165.531 31.3158 166.346 31.9181 167.267 32.3668C168.212 32.8156 169.204 33.04 170.243 33.04C171.047 33.04 171.72 32.8983 172.263 32.6148C172.83 32.355 173.29 32.0362 173.645 31.6583C174.023 31.2804 174.306 30.8906 174.495 30.4891C174.684 30.0876 174.826 29.7451 174.92 29.4617H174.991V32.544H180.695V32.048H177.967V7H172.192V7.496ZM166.063 24.4308C166.063 23.3444 166.122 22.376 166.24 21.5257C166.358 20.6518 166.559 19.9078 166.842 19.2937C167.149 18.6796 167.563 18.2072 168.082 17.8766C168.626 17.5459 169.311 17.3806 170.137 17.3806C171.011 17.3806 171.731 17.5341 172.298 17.8411C172.865 18.1482 173.326 18.5379 173.68 19.0103C173.916 19.3409 174.117 19.6952 174.282 20.0731C174.448 20.451 174.578 20.8998 174.672 21.4194C174.767 21.939 174.826 22.5413 174.849 23.2263C174.896 23.8876 174.92 24.6788 174.92 25.6C174.92 26.3794 174.861 27.1825 174.743 28.0091C174.625 28.8358 174.4 29.5916 174.07 30.2766C173.739 30.9379 173.267 31.4811 172.653 31.9063C172.062 32.3314 171.271 32.544 170.279 32.544C169.311 32.544 168.543 32.355 167.976 31.9771C167.409 31.5992 166.984 31.056 166.701 30.3474C166.417 29.6388 166.24 28.7886 166.169 27.7966C166.098 26.7809 166.063 25.659 166.063 24.4308Z" fill="#4EE39D"/>
<path d="M199.003 23.7577C199.003 22.4587 198.779 21.3722 198.33 20.4983C197.905 19.6244 197.362 18.9276 196.701 18.408C196.063 17.8648 195.366 17.475 194.61 17.2388C193.854 17.0027 193.146 16.8846 192.485 16.8846C191.374 16.8846 190.335 17.1208 189.367 17.5931C188.398 18.0419 187.548 18.6442 186.816 19.4C186.107 20.1558 185.541 21.0297 185.115 22.0217C184.714 22.9901 184.513 23.9939 184.513 25.0331C184.513 26.2377 184.714 27.336 185.115 28.328C185.517 29.2964 186.084 30.1348 186.816 30.8434C187.548 31.552 188.41 32.0952 189.402 32.4731C190.418 32.851 191.516 33.04 192.697 33.04C193.878 33.04 194.835 32.8628 195.567 32.5086C196.323 32.1306 196.913 31.7055 197.338 31.2331C197.787 30.7371 198.106 30.2529 198.295 29.7806C198.507 29.2846 198.649 28.9066 198.72 28.6468L198.189 28.5406C198.094 28.824 197.952 29.1901 197.763 29.6388C197.574 30.0876 197.279 30.5364 196.878 30.9851C196.5 31.4103 195.968 31.7764 195.283 32.0834C194.622 32.3905 193.772 32.544 192.733 32.544C191.693 32.544 190.855 32.3196 190.217 31.8708C189.603 31.4221 189.131 30.8552 188.8 30.1703C188.493 29.4853 188.292 28.7177 188.198 27.8674C188.103 27.0171 188.056 26.2023 188.056 25.4228C188.056 25.0449 188.056 24.7379 188.056 24.5017C188.08 24.2419 188.091 23.9939 188.091 23.7577H199.003ZM188.127 23.2617C188.174 22.4823 188.269 21.7383 188.41 21.0297C188.576 20.3211 188.812 19.6952 189.119 19.152C189.426 18.6088 189.839 18.1836 190.359 17.8766C190.878 17.5459 191.54 17.3806 192.343 17.3806C192.792 17.3806 193.205 17.4514 193.583 17.5931C193.984 17.7112 194.315 17.9238 194.575 18.2308C194.858 18.5379 195.071 18.9512 195.213 19.4708C195.378 19.9905 195.461 20.6518 195.461 21.4548V22.3406C195.461 22.624 195.437 22.931 195.39 23.2617H188.127Z" fill="#4EE39D"/>
<path d="M202.83 32.544H211.687V32.048H208.605V23.9348C208.605 22.9428 208.723 22.0689 208.959 21.3131C209.219 20.5337 209.526 19.8724 209.88 19.3291C210.258 18.7859 210.659 18.3726 211.085 18.0891C211.51 17.8057 211.911 17.664 212.289 17.664C213.116 17.664 213.529 18.0419 213.529 18.7977C213.529 19.1048 213.506 19.3409 213.458 19.5063C213.411 19.6716 213.352 19.8251 213.281 19.9668C213.234 20.0849 213.187 20.2148 213.139 20.3566C213.092 20.4747 213.069 20.64 213.069 20.8526C213.069 21.5139 213.588 21.8446 214.627 21.8446C215.1 21.8446 215.513 21.7147 215.867 21.4548C216.222 21.195 216.399 20.6754 216.399 19.896C216.399 19.5417 216.34 19.1874 216.222 18.8331C216.104 18.4788 215.915 18.1718 215.655 17.912C215.395 17.6286 215.064 17.4042 214.663 17.2388C214.261 17.0499 213.789 16.9554 213.246 16.9554C212.49 16.9554 211.84 17.0971 211.297 17.3806C210.778 17.664 210.329 18.0183 209.951 18.4434C209.573 18.8449 209.278 19.2701 209.065 19.7188C208.853 20.1676 208.699 20.5691 208.605 20.9234H208.534V17.3451H202.83V17.8411H205.558V32.048H202.83V32.544Z" fill="#4EE39D"/>
<path fill-rule="evenodd" clip-rule="evenodd" d="M222.356 8.40476H218.601V7.76105H223V41.8778H218.601V41.2341H222.356V8.40476Z" fill="#4EE39D"/>
<path fill-rule="evenodd" clip-rule="evenodd" d="M8.64371 8.40476H12.3987V7.76105H8V41.8778H12.3987V41.2341H8.64371V8.40476Z" fill="#4EE39D"/>
</svg>
