<svg width="230" height="50" viewBox="0 0 230 50" fill="none" xmlns="http://www.w3.org/2000/svg">
<path d="M54.1144 19.9202H45.6758V21.1104H49.253V30.7229H50.5372V21.1104H54.1144V19.9202Z" fill="#4EE39D"/>
<path d="M55.6313 30.7229H56.9156V25.6878H62.6941V30.7229H63.9783V19.9202H62.6941V24.4976H56.9156V19.9202H55.6313V30.7229Z" fill="#4EE39D"/>
<path d="M66.6641 30.7229H67.9482V25.8709H69.5993L72.5345 30.7229H74.1091L71.0363 25.7488C72.7179 25.4894 73.7422 24.4671 73.7422 22.8956C73.7422 20.2254 71.5255 19.9202 69.4311 19.9202H66.6641V30.7229ZM67.9482 21.1104H69.7522C71.0057 21.1104 72.3663 21.3392 72.3663 22.8956C72.3663 24.6807 70.5165 24.6807 69.0948 24.6807H67.9482V21.1104Z" fill="#4EE39D"/>
<path d="M76.0093 30.7229H83.0874V29.5328H77.2935V25.6878H82.4454V24.4976H77.2935V21.1104H82.8123V19.9202H76.0093V30.7229Z" fill="#4EE39D"/>
<path d="M85.0718 30.7229H92.1498V29.5328H86.3559V25.6878H91.5078V24.4976H86.3559V21.1104H91.8747V19.9202H85.0718V30.7229Z" fill="#4EE39D"/>
<path d="M97.1348 30.7229H98.5871L99.7031 28.068H105.115L106.216 30.7229H107.714L103.112 19.9202H101.904L97.1348 30.7229ZM104.626 26.8779H100.208L102.455 21.5681H102.485L104.626 26.8779Z" fill="#4EE39D"/>
<path d="M109.152 30.7229H110.436V25.8709H112.087L115.023 30.7229H116.597L113.525 25.7488C115.206 25.4894 116.23 24.4671 116.23 22.8956C116.23 20.2254 114.014 19.9202 111.919 19.9202H109.152V30.7229ZM110.436 21.1104H112.24C113.494 21.1104 114.855 21.3392 114.855 22.8956C114.855 24.6807 113.005 24.6807 111.583 24.6807H110.436V21.1104Z" fill="#4EE39D"/>
<path d="M118.498 30.7229H119.782V25.8709H121.433L124.368 30.7229H125.943L122.87 25.7488C124.552 25.4894 125.576 24.4671 125.576 22.8956C125.576 20.2254 123.359 19.9202 121.265 19.9202H118.498V30.7229ZM119.782 21.1104H121.586C122.84 21.1104 124.2 21.3392 124.2 22.8956C124.2 24.6807 122.35 24.6807 120.929 24.6807H119.782V21.1104Z" fill="#4EE39D"/>
<path d="M132.873 30.9975C136.16 30.9975 138.53 28.5868 138.53 25.3216C138.53 22.0564 136.16 19.6456 132.873 19.6456C129.586 19.6456 127.217 22.0564 127.217 25.3216C127.217 28.5868 129.586 30.9975 132.873 30.9975V30.9975ZM132.873 29.8074C130.335 29.8074 128.593 27.8086 128.593 25.3216C128.593 22.8345 130.335 20.8357 132.873 20.8357C135.411 20.8357 137.154 22.8345 137.154 25.3216C137.154 27.8086 135.411 29.8074 132.873 29.8074Z" fill="#4EE39D"/>
<path d="M142.504 30.7229H143.91L146.601 21.5681H146.632L149.307 30.7229H150.698L153.878 19.9202H152.533L150.025 28.8919H149.995L147.35 19.9202H145.913L143.253 28.8919H143.223L140.761 19.9202H139.34L142.504 30.7229Z" fill="#4EE39D"/>
<path d="M161.505 20.912C160.71 19.9813 159.685 19.6456 158.478 19.6456C156.582 19.6456 154.794 20.6831 154.794 22.7582C154.794 24.5587 155.955 25.23 157.484 25.7335C159.41 26.3744 160.312 26.6032 160.312 27.9307C160.312 29.1666 159.059 29.8074 157.958 29.8074C157.025 29.8074 156.108 29.3954 155.65 28.602L154.549 29.5023C155.283 30.5856 156.628 30.9975 157.882 30.9975C159.838 30.9975 161.688 29.9905 161.688 27.8391C161.688 25.7183 160.129 25.169 158.447 24.635C156.72 24.0857 156.169 23.6432 156.169 22.6514C156.169 21.3698 157.347 20.8357 158.478 20.8357C159.257 20.8357 160.022 21.1409 160.45 21.8275L161.505 20.912Z" fill="#4EE39D"/>
<path d="M176.761 21.3392C175.844 20.1491 174.407 19.6456 172.939 19.6456C169.729 19.6456 167.436 22.1479 167.436 25.3216C167.436 28.602 169.836 30.9975 172.939 30.9975C174.667 30.9975 176.073 30.4025 177.037 29.1055L176.073 28.2969C175.309 29.2734 174.254 29.8074 172.939 29.8074C170.509 29.8074 168.812 27.8239 168.812 25.3216C168.812 22.9566 170.524 20.8357 172.939 20.8357C173.979 20.8357 175.003 21.2782 175.645 22.1479L176.761 21.3392Z" fill="#4EE39D"/>
<path d="M177.573 30.7229H179.025L180.141 28.068H185.553L186.654 30.7229H188.152L183.551 19.9202H182.343L177.573 30.7229ZM185.064 26.8779H180.646L182.893 21.5681H182.924L185.064 26.8779Z" fill="#4EE39D"/>
<path d="M189.591 30.7229H190.875V25.8709H193.046C194.574 25.8709 196.592 25.2453 196.592 22.8803C196.592 20.6221 194.788 19.9202 192.801 19.9202H189.591V30.7229ZM190.875 21.1104H193.046C194.33 21.1104 195.216 21.6902 195.216 22.8956C195.216 24.1009 194.33 24.6807 193.046 24.6807H190.875V21.1104Z" fill="#4EE39D"/>
<path d="M198.653 30.7229H199.937V19.9202H198.653V30.7229Z" fill="#4EE39D"/>
<path d="M209.885 19.9202H201.447V21.1104H205.024V30.7229H206.308V21.1104H209.885V19.9202Z" fill="#4EE39D"/>
<path d="M208.745 30.7229H210.198L211.314 28.068H216.725L217.826 30.7229H219.324L214.723 19.9202H213.515L208.745 30.7229ZM216.236 26.8779H211.818L214.065 21.5681H214.096L216.236 26.8779Z" fill="#4EE39D"/>
<path d="M220.763 30.7229H227V29.5328H222.047V19.9202H220.763V30.7229Z" fill="#4EE39D"/>
<path fill-rule="evenodd" clip-rule="evenodd" d="M17.9857 6.06341C18.3477 5.90629 18.7701 6.05017 18.9604 6.39545L20.6424 9.44765C20.8458 9.8169 20.7109 10.2809 20.3409 10.484C19.9709 10.6871 19.5061 10.5524 19.3026 10.1831L18.4129 8.56859L15.2902 16.6579C17.2301 17.4665 19.1619 18.5338 20.9871 19.908C21.8684 20.5715 22.7233 21.3053 23.541 22.1143L31.7353 13.9358H30.0642C29.642 13.9358 29.2997 13.5942 29.2997 13.1728C29.2997 12.7514 29.642 12.4097 30.0642 12.4097H33.581C34.0032 12.4097 34.3455 12.7514 34.3455 13.1728V16.5302C34.3455 16.9516 34.0032 17.2933 33.581 17.2933C33.1588 17.2933 32.8165 16.9516 32.8165 16.5302V15.015L24.5939 23.2217C26.5606 25.4213 28.2638 28.1086 29.5348 31.3607L37.1989 28.3279L35.6234 27.781C35.2246 27.6426 35.0138 27.2077 35.1525 26.8096C35.2912 26.4116 35.7269 26.2012 36.1257 26.3396L39.6426 27.5605C40.0303 27.6951 40.2423 28.1113 40.1228 28.5034L39.0525 32.0134C38.9295 32.4165 38.5024 32.6439 38.0985 32.5212C37.6945 32.3985 37.4667 31.9722 37.5897 31.569L38.1979 29.5743L30.055 32.7965C31.0609 35.8016 31.7136 39.2524 31.8982 43.2014C31.9179 43.6223 31.5919 43.9795 31.1702 43.9992C30.7484 44.0188 30.3905 43.6935 30.3708 43.2725C30.1942 39.4947 29.5768 36.2096 28.6315 33.3598L4.96375 42.7254C4.68148 42.8371 4.35975 42.7715 4.144 42.5583C3.92826 42.345 3.8594 42.0245 3.96856 41.7417L13.3134 17.5339C9.87759 16.3262 6.4976 15.9384 3.8023 16.0715C3.38058 16.0923 3.0218 15.7679 3.00095 15.347C2.9801 14.9261 3.30506 14.568 3.72678 14.5472C6.60953 14.405 10.2082 14.818 13.8634 16.1092L16.9205 8.18973L15.0785 8.98905C14.6913 9.15708 14.2409 8.98 14.0726 8.59352C13.9042 8.20705 14.0816 7.75754 14.4689 7.58951L17.9857 6.06341ZM14.7402 18.0828L6.69244 38.9304L22.4597 23.1935C21.6911 22.4334 20.8897 21.7462 20.0664 21.1263C18.3612 19.8426 16.555 18.8428 14.7402 18.0828ZM23.5107 24.3028L7.83615 39.9471L28.1135 31.9231C26.9195 28.866 25.3307 26.3536 23.5107 24.3028Z" fill="#4EE39D"/>
</svg>
