<svg fill="none" height="50" viewBox="0 0 230 50" width="230" xmlns="http://www.w3.org/2000/svg"><g fill="#9c9ca4"><path clip-rule="evenodd" d="m53.8831 49c13.1904 0 23.8832-10.7449 23.8832-23.9999 0-13.2549-10.6928-24.0001-23.8832-24.0001-13.1903 0-23.8831 10.7452-23.8831 24.0001 0 13.255 10.6928 23.9999 23.8831 23.9999zm3.0766-32.5287 8.0405-4.7065-.0002 9.7848c0 2.5122-1.3286 4.8351-3.4888 6.0995l-7.3379 4.2952v7.2749l-8.0404-4.7065c-2.1601-1.2644-3.4888-3.5874-3.4888-6.0995l-.0001-9.7848 8.0405 4.7064c1.2279.7189 2.1871 1.7797 2.7863 3.0228l.0001-3.7869c0-2.5121 1.3286-4.835 3.4888-6.0994z" fill-rule="evenodd"/><path d="m87.7302 35.7633v-22.1318h4.2207l9.1971 14.0695c.504.8431.818 1.4228.945 1.7389v-15.8084h4.031v22.1318h-4.221l-9.1961-14.1643c-.5042-.8431-.819-1.4228-.9449-1.7389v15.9032zm35.9998 0h-4.031c-.504-.6323-.756-1.4649-.756-2.4977-1.092 1.9602-2.835 2.9403-5.228 2.9403-1.554 0-2.824-.4426-3.811-1.3279-.966-.9063-1.449-2.0972-1.449-3.5727 0-1.4965.514-2.6663 1.543-3.5094 1.05-.8642 2.394-1.4228 4.032-1.6757l4.692-.7272v-.6007c0-1.5809-.955-2.3713-2.866-2.3713-.882 0-1.575.1687-2.078.5059-.483.3372-.725.7588-.725 1.2647 0 .1264.022.2529.063.3793l-3.559 1.2015c-.189-.4216-.284-.8642-.284-1.3279 0-1.2857.599-2.4029 1.796-3.3514 1.197-.9695 2.793-1.4544 4.787-1.4544 2.227 0 3.916.4743 5.071 1.4228 1.176.9485 1.764 2.3712 1.764 4.2683v6.5446c0 1.5809.346 2.8771 1.039 3.8889zm-9.07-2.7823c1.196 0 2.172-.3899 2.928-1.1698.756-.801 1.134-1.9286 1.134-3.383v-.2845l-3.779.6323c-1.742.2951-2.614 1.0644-2.614 2.308 0 .6113.21 1.0855.63 1.4228.42.3161.987.4742 1.701.4742zm14.643-9.0424c0 .9696 1.228 1.7073 3.685 2.2132 1.827.3794 3.15.9591 3.969 1.7389.839.7588 1.259 1.7916 1.259 3.0985 0 1.5176-.556 2.7717-1.669 3.7623-1.113.9696-2.614 1.4544-4.504 1.4544-1.806 0-3.307-.4426-4.504-1.3279-1.176-.8852-2.057-2.0129-2.645-3.383l3.181-2.0234c.356 1.0328.871 1.8548 1.543 2.4661.693.6112 1.522.9169 2.488.9169.651 0 1.218-.1476 1.701-.4427.504-.3162.756-.7482.756-1.2963 0-.5058-.263-.9063-.788-1.2014-.525-.3162-1.375-.5901-2.551-.8221-3.633-.7166-5.448-2.3502-5.448-4.9005 0-1.4122.566-2.5188 1.701-3.3198 1.133-.822 2.508-1.2331 4.125-1.2331 1.659 0 2.982.3162 3.969.9485 1.008.6324 1.837 1.6335 2.488 3.0037l-2.866 1.7072c-.714-1.8337-1.89-2.7506-3.527-2.7506-1.575 0-2.363.4637-2.363 1.3911zm22.805 5.6594 3.212 2.0867c-1.512 3.0142-3.948 4.5212-7.307 4.5212-2.351 0-4.315-.7588-5.89-2.2764-1.554-1.5386-2.33-3.541-2.33-6.0071 0-2.4451.798-4.437 2.394-5.9756 1.595-1.5387 3.538-2.3081 5.826-2.3081 1.721 0 3.202.3794 4.441 1.1382 1.26.7378 2.162 1.7811 2.708 3.1301l-3.244 2.15c-.818-1.7916-2.131-2.6875-3.936-2.6875-1.198 0-2.194.4216-2.993 1.2647-.776.822-1.165 1.918-1.165 3.2882 0 1.3911.389 2.4976 1.165 3.3197.777.822 1.775 1.233 2.993 1.233 1.008 0 1.826-.2318 2.456-.6955.651-.4848 1.208-1.212 1.67-2.1816zm20.214-.7272h-12.031c.125 1.2015.576 2.1605 1.354 2.8772.777.6955 1.753 1.0433 2.929 1.0433 1.931 0 3.37-.959 4.315-2.8771l2.961 1.7073c-1.471 3.0562-3.917 4.5844-7.339 4.5844-2.226 0-4.126-.7693-5.701-2.308-1.554-1.5598-2.331-3.5517-2.331-5.9755 0-2.4451.788-4.437 2.363-5.9756 1.595-1.5387 3.548-2.3081 5.858-2.3081 2.225 0 4.052.7378 5.48 2.2132 1.427 1.4544 2.142 3.3303 2.142 5.6278zm-7.748-6.1968c-1.029 0-1.932.3161-2.709.9484-.756.6113-1.281 1.3912-1.574 2.3397h8.378c-.189-1.0328-.641-1.8338-1.355-2.4029-.714-.5902-1.628-.8852-2.74-.8852zm25.014 2.4028v10.6865h-3.969v-9.0424c0-2.2342-1.06-3.3514-3.181-3.3514-1.05 0-1.921.411-2.614 1.2331-.672.822-1.008 1.8864-1.008 3.1933v7.9674h-3.968v-15.6819h3.968v2.5293c1.281-1.9813 3.045-2.972 5.292-2.972 1.658 0 2.981.4954 3.968 1.486 1.008.9907 1.512 2.308 1.512 3.9521zm1.333-1.7705v-3.2249h2.425v-4.2367h3.969v4.2367h3.401v3.2249h-3.401v7.1454c0 1.4754.661 2.2132 1.984 2.2132.462 0 .903-.0633 1.323-.1898l.378 3.2882c-.798.2951-1.68.4426-2.646.4426-3.338 0-5.008-1.6651-5.008-4.9954v-7.9042z"/></g></svg>